<?xml version="1.0" encoding="UTF-8"?>
<svg width="94px" height="84px" viewBox="0 0 94 84" version="1.1" xmlns="http://www.w3.org/2000/svg" xmlns:xlink="http://www.w3.org/1999/xlink">
    <title>Slice 1</title>
    <g id="Page-1" stroke="none" stroke-width="1" fill="none" fill-rule="evenodd">
        <polygon id="path6063-4-20-3-7-7" stroke="#000000" stroke-width="0.5" fill="#C44E52" fill-rule="nonzero" transform="translate(32.440632, 28.357773) scale(-1, 1) translate(-32.440632, -28.357773) " points="31.8407246 28.3600778 32.7000461 29.7267022 33.0405388 29.7286778 33.0405388 26.9868691 32.595782 26.9894091"></polygon>
        <polygon id="path6063-4-20-3-7-7" stroke="#000000" stroke-width="0.5" fill="#009900" fill-rule="nonzero" points="37.8407246 28.3600778 38.7000461 29.7267022 39.0405388 29.7286778 39.0405388 26.9868691 38.595782 26.9894091"></polygon>
        <polygon id="path6063-4-6-2-0-6-0" stroke="#000000" stroke-width="0.5" fill="#3E9ADE" fill-rule="nonzero" transform="translate(47.454485, 37.357773) scale(-1, 1) translate(-47.454485, -37.357773) " points="46.854578 37.3600776 47.7138966 38.726702 48.0543921 38.7286776 48.0543921 35.9868689 47.6096325 35.9894089"></polygon>
        <polygon id="path6063-4-6-2-0-6-0" stroke="#000000" stroke-width="0.5" fill="#DEB93E" fill-rule="nonzero" points="57.8545766 37.3600776 58.5707864 38.726702 58.8545766 38.7286776 58.8545766 35.9868689 58.4838861 35.9894089"></polygon>
        <polygon id="path6063-4-20-3-7-7" stroke="#000000" stroke-width="0.5" fill="#009900" fill-rule="nonzero" transform="translate(38.440632, 32.357773) scale(-1, 1) translate(-38.440632, -32.357773) " points="37.8407248 32.3600776 38.7000463 33.726702 39.040539 33.7286776 39.040539 30.9868689 38.5957822 30.9894089"></polygon>
        <polygon id="path6063-4-6-2-0-6-0" stroke="#000000" stroke-width="0.5" fill="#3E9ADE" fill-rule="nonzero" points="46.8545781 32.3600776 47.7138967 33.726702 48.0543922 33.7286776 48.0543922 30.9868689 47.6096326 30.9894089"></polygon>
        <polygon id="path6063-4-20-3-7-7" stroke="#000000" stroke-width="0.5" fill="#C44E52" fill-rule="nonzero" points="31.8407246 42.3600778 32.7000461 43.7267022 33.0405388 43.7286778 33.0405388 40.9868691 32.595782 40.9894091"></polygon>
        <polygon id="path6063-4-20-3-7-7" stroke="#000000" stroke-width="0.5" fill="#009900" fill-rule="nonzero" transform="translate(38.440632, 42.357773) scale(-1, 1) translate(-38.440632, -42.357773) " points="37.8407246 42.3600778 38.7000461 43.7267022 39.0405388 43.7286778 39.0405388 40.9868691 38.595782 40.9894091"></polygon>
        <polygon id="path6063-4-6-2-0-6-0" stroke="#000000" stroke-width="0.5" fill="#3E9ADE" fill-rule="nonzero" points="46.854578 51.3600776 47.7138966 52.726702 48.0543921 52.7286776 48.0543921 49.9868689 47.6096325 49.9894089"></polygon>
        <polygon id="path6063-4-6-2-0-6-0" stroke="#000000" stroke-width="0.5" fill="#DEB93E" fill-rule="nonzero" transform="translate(58.354577, 51.357773) scale(-1, 1) translate(-58.354577, -51.357773) " points="57.8545766 51.3600776 58.5707864 52.726702 58.8545766 52.7286776 58.8545766 49.9868689 58.4838861 49.9894089"></polygon>
        <polygon id="path6063-4-20-3-7-7" stroke="#000000" stroke-width="0.5" fill="#009900" fill-rule="nonzero" points="37.8407248 46.3600776 38.7000463 47.726702 39.040539 47.7286776 39.040539 44.9868689 38.5957822 44.9894089"></polygon>
        <polygon id="path6063-4-6-2-0-6-0" stroke="#000000" stroke-width="0.5" fill="#3E9ADE" fill-rule="nonzero" transform="translate(47.454485, 46.357773) scale(-1, 1) translate(-47.454485, -46.357773) " points="46.8545781 46.3600776 47.7138967 47.726702 48.0543922 47.7286776 48.0543922 44.9868689 47.6096326 44.9894089"></polygon>
        <polygon id="path6063-4-20-3-7-7" stroke="#000000" stroke-width="0.5" fill="#C44E52" fill-rule="nonzero" transform="translate(32.440632, 57.357773) scale(-1, 1) translate(-32.440632, -57.357773) " points="31.8407246 57.3600778 32.7000461 58.7267022 33.0405388 58.7286778 33.0405388 55.9868691 32.595782 55.9894091"></polygon>
        <polygon id="path6063-4-20-3-7-7" stroke="#000000" stroke-width="0.5" fill="#009900" fill-rule="nonzero" transform="translate(38.440632, 57.357773) scale(-1, 1) translate(-38.440632, -57.357773) " points="37.8407246 57.3600778 38.7000461 58.7267022 39.0405388 58.7286778 39.0405388 55.9868691 38.595782 55.9894091"></polygon>
        <polygon id="path6063-4-6-2-0-6-0" stroke="#000000" stroke-width="0.5" fill="#3E9ADE" fill-rule="nonzero" points="46.854578 66.3600776 47.7138966 67.726702 48.0543921 67.7286776 48.0543921 64.9868689 47.6096325 64.9894089"></polygon>
        <polygon id="path6063-4-6-2-0-6-0" stroke="#000000" stroke-width="0.5" fill="#DEB93E" fill-rule="nonzero" points="57.8545766 66.3600776 58.5707864 67.726702 58.8545766 67.7286776 58.8545766 64.9868689 58.4838861 64.9894089"></polygon>
        <polygon id="path6063-4-20-3-7-7" stroke="#000000" stroke-width="0.5" fill="#009900" fill-rule="nonzero" transform="translate(38.440632, 61.357773) scale(-1, 1) translate(-38.440632, -61.357773) " points="37.8407248 61.3600776 38.7000463 62.726702 39.040539 62.7286776 39.040539 59.9868689 38.5957822 59.9894089"></polygon>
        <polygon id="path6063-4-6-2-0-6-0" stroke="#000000" stroke-width="0.5" fill="#3E9ADE" fill-rule="nonzero" points="46.8545781 61.3600776 47.7138967 62.726702 48.0543922 62.7286776 48.0543922 59.9868689 47.6096326 59.9894089"></polygon>
        <polygon id="path6063-4-20-3-7-7" stroke="#000000" stroke-width="0.5" fill="#C44E52" fill-rule="nonzero" transform="translate(32.440632, 73.357773) scale(-1, 1) translate(-32.440632, -73.357773) " points="31.8407246 73.3600778 32.7000461 74.7267022 33.0405388 74.7286778 33.0405388 71.9868691 32.595782 71.9894091"></polygon>
        <polygon id="path6063-4-20-3-7-7" stroke="#000000" stroke-width="0.5" fill="#009900" fill-rule="nonzero" transform="translate(38.440632, 73.357773) scale(-1, 1) translate(-38.440632, -73.357773) " points="37.8407246 73.3600778 38.7000461 74.7267022 39.0405388 74.7286778 39.0405388 71.9868691 38.595782 71.9894091"></polygon>
        <polygon id="path6063-4-6-2-0-6-0" stroke="#000000" stroke-width="0.5" fill="#3E9ADE" fill-rule="nonzero" transform="translate(47.454485, 82.357773) scale(-1, 1) translate(-47.454485, -82.357773) " points="46.854578 82.3600776 47.7138966 83.726702 48.0543921 83.7286776 48.0543921 80.9868689 47.6096325 80.9894089"></polygon>
        <polygon id="path6063-4-6-2-0-6-0" stroke="#000000" stroke-width="0.5" fill="#DEB93E" fill-rule="nonzero" transform="translate(58.354577, 82.357773) scale(-1, 1) translate(-58.354577, -82.357773) " points="57.8545766 82.3600776 58.5707864 83.726702 58.8545766 83.7286776 58.8545766 80.9868689 58.4838861 80.9894089"></polygon>
        <polygon id="path6063-4-20-3-7-7" stroke="#000000" stroke-width="0.5" fill="#009900" fill-rule="nonzero" transform="translate(38.440632, 77.357773) scale(-1, 1) translate(-38.440632, -77.357773) " points="37.8407248 77.3600776 38.7000463 78.726702 39.040539 78.7286776 39.040539 75.9868689 38.5957822 75.9894089"></polygon>
        <polygon id="path6063-4-6-2-0-6-0" stroke="#000000" stroke-width="0.5" fill="#3E9ADE" fill-rule="nonzero" transform="translate(47.454485, 77.357773) scale(-1, 1) translate(-47.454485, -77.357773) " points="46.8545781 77.3600776 47.7138967 78.726702 48.0543922 78.7286776 48.0543922 75.9868689 47.6096326 75.9894089"></polygon>
        <line x1="50.9506411" y1="1.94902124" x2="43.161398" y2="1.94902124" id="path4191-9-2-29-3" stroke="#000000" stroke-width="0.5" stroke-dasharray="1.693333333331004,0.5644444444436679"></line>
        <line x1="27.951208" y1="2.92188358" x2="31.5" y2="14.5" id="path5953-8-5-9-9" stroke="#000000" stroke-width="0.4" stroke-dasharray="1.1,1"></line>
        <line x1="35.8299748" y1="2.92188358" x2="34.5" y2="14.5" id="path5955-8-8-6-1" stroke="#000000" stroke-width="0.4" stroke-dasharray="1.1,1"></line>
        <line x1="51.2000916" y1="2.97177482" x2="46.5" y2="8.5" id="path5972-8-5-0-8" stroke="#000000" stroke-width="0.4" stroke-dasharray="1.1,1"></line>
        <line x1="57.5" y1="2.5" x2="49.5" y2="8.5" id="path5974-4-0-2-8" stroke="#000000" stroke-width="0.4" stroke-dasharray="1.1,1"></line>
        <line x1="57.2000916" y1="2.97177482" x2="52.5" y2="20.5" id="path5972-8-5-0-8" stroke="#000000" stroke-width="0.4" stroke-dasharray="1.1,1"></line>
        <line x1="66.5" y1="2.5" x2="56.5" y2="20.5" id="path5974-4-0-2-8" stroke="#000000" stroke-width="0.4" stroke-dasharray="1.1,1"></line>
        <g id="g7455-1-7-1-5" transform="translate(27.900404, 0.953422)" stroke="#000000" stroke-width="0.5">
            <rect id="rect4138-6-7-7-3-2" fill="#C44E52" fill-rule="nonzero" stroke-linecap="round" x="1.52655666e-16" y="0.0612360911" width="8.00856412" height="1.86873176"></rect>
            <g id="g6125-3-5-76-2-7" transform="translate(1.737020, -0.000000)">
                <polyline id="path6063-8-1-9-1-9" points="0.1264411 0 0.88246596 0.952153593 0.11753404 1.91552505"></polyline>
                <polyline id="path6063-9-3-74-1-5-1" points="3.09012371 0 3.84614858 0.952153593 3.08121666 1.91552505"></polyline>
            </g>
            <rect id="rect4138-6-7-7-2-9-9" fill="#009900" fill-rule="nonzero" stroke-linecap="round" x="8.00551838" y="0.0628154061" width="7.21032001" height="1.86873069"></rect>
            <g id="g6125-3-5-76-1-9-6" transform="translate(9.876804, 0.026190)">
                <polyline id="path6063-8-1-9-7-1-3" points="0.1264411 0 0.88246596 0.952153593 0.11753404 1.91552505"></polyline>
                <polyline id="path6063-9-3-74-1-7-4-6" points="3.09012371 0 3.84614858 0.952153593 3.08121666 1.91552505"></polyline>
            </g>
        </g>
        <rect id="rect4138-7-1-8-1-4" stroke="#000000" stroke-width="0.5" fill="#3E9ADE" fill-rule="nonzero" stroke-linecap="round" x="51.0252211" y="1.01465769" width="6" height="1.86873123"></rect>
        <rect id="rect4138-7-1-8-1-4" stroke="#000000" stroke-width="0.5" fill="#DEB93E" fill-rule="nonzero" stroke-linecap="round" x="57.0252211" y="1.01465769" width="10" height="1.86873123"></rect>
        <g id="g6125-3-4-7-8-07-6" transform="translate(58.979769, 1.950870) scale(-1, 1) translate(-58.979769, -1.950870) translate(52.552406, 0.993108)" stroke="#000000" stroke-width="0.5">
            <polyline id="path6063-8-7-0-0-5-6" points="0.1264411 0 0.88246596 0.952153593 0.11753404 1.91552505"></polyline>
            <polyline id="path6063-9-3-6-4-3-8-7" points="3.09012371 0 3.84614858 0.952153593 3.08121666 1.91552505"></polyline>
            <polyline id="path6063-9-9-3-8-0-70-7-2" points="6.05380235 0 6.80982721 0.952153593 6.04489529 1.91552505"></polyline>
            <polyline id="path6063-9-9-1-3-9-8-6-0-7" points="9.01748382 0 9.77351121 0.952153593 9.00857904 1.91552505"></polyline>
            <polyline id="path6063-9-9-1-4-80-0-5-9-48-4" points="11.9811684 0 12.737193 0.952153593 11.9722608 1.91552505"></polyline>
        </g>
        <path d="M28.1461559,8.49605387 C27.8096284,8.47305276 27.2275592,8.88572656 27.2313605,9.9493318 C27.2352836,11.012937 27.8173472,11.4250718 28.1538718,11.4020594 L59.023032,11.4020594 L59.3741559,10.7797396 L62.2162212,10.7797396 L62.8534282,11.4020594 L67.0228184,11.4020594 C67.3880422,11.3085281 67.8312186,10.7075218 67.8242912,9.94581531 C67.8168704,9.18410882 67.3780713,8.58900658 67.0151025,8.49605387 L62.8457094,8.49605387 L62.2085053,9.11892678 L59.36644,9.11892678 L59.015316,8.49605387 L28.1461559,8.49605387 Z" id="path5671-5-9-0-1" stroke="#000000" stroke-width="0.5" fill="#FFFFFF" fill-rule="nonzero"></path>
        <path d="M28.2107932,14.3684701 C27.8742658,14.345469 27.2921966,14.7581428 27.2959979,15.8217481 C27.299921,16.8853533 27.8819846,17.2974881 28.2185092,17.2744757 L59.0876693,17.2744757 L59.4387933,16.6521559 L62.2808586,16.6521559 L62.9180655,17.2744757 L67.0874558,17.2744757 C67.4526796,17.1809444 67.8958559,16.5799381 67.8889285,15.8182316 C67.8815078,15.0565251 67.4427087,14.4614228 67.0797398,14.3684701 L62.9103468,14.3684701 L62.2731426,14.991343 L59.4310773,14.991343 L59.0799534,14.3684701 L28.2107932,14.3684701 Z" id="path5671-5-9-9-4-0" stroke="#000000" stroke-width="0.5" fill="#FFFFFF" fill-rule="nonzero"></path>
        <path d="M28.2107932,20.3684701 C27.8742658,20.345469 27.2921966,20.7581428 27.2959979,21.8217481 C27.299921,22.8853533 27.8819846,23.2974881 28.2185092,23.2744757 L59.0876693,23.2744757 L59.4387933,22.6521559 L62.2808586,22.6521559 L62.9180655,23.2744757 L67.0874558,23.2744757 C67.4526796,23.1809444 67.8958559,22.5799381 67.8889285,21.8182316 C67.8815078,21.0565251 67.4427087,20.4614228 67.0797398,20.3684701 L62.9103468,20.3684701 L62.2731426,20.991343 L59.4310773,20.991343 L59.0799534,20.3684701 L28.2107932,20.3684701 Z" id="path5671-5-9-9-4-0" stroke="#000000" stroke-width="0.5" fill="#FFFFFF" fill-rule="nonzero"></path>
        <g id="g7464-3-6-2-0" transform="translate(48.073631, 9.933428) scale(-1, 1) translate(-48.073631, -9.933428) translate(46.573631, 8.562523)" stroke="#000000" stroke-width="0.5">
            <rect id="rect4138-6-1-7-0-9-6" fill="#3E9ADE" fill-rule="nonzero" stroke-linecap="round" x="1.11022302e-16" y="2.77555756e-17" width="3" height="2.74181073"></rect>
            <g id="g6125-1-83-6-4" transform="translate(0.229949, 0.073755)">
                <polyline id="path6063-9-9-0-21-4-7" points="0.129310566 6.24500451e-17 0.87952807 1.29941462 0.12047193 2.61413837"></polyline>
                <polyline id="path6063-9-9-1-9-0-22-3" points="0.82979092 6.24500451e-17 1.58000842 1.29941462 0.82095228 2.61413837"></polyline>
                <polyline id="path6063-9-9-1-4-7-5-2-4" points="1.53027155 6.24500451e-17 2.28048906 1.29941462 1.52143292 2.61413837"></polyline>
            </g>
        </g>
        <text id="read" fill="#000000" fill-rule="nonzero" font-family="Helvetica" font-size="2.82222222" font-weight="normal">
            <tspan x="17.2914704" y="62.0744672">read</tspan>
        </text>
        <text id="{" fill="#000000" fill-rule="nonzero" font-family="Helvetica-Light, Helvetica" font-size="13" font-weight="300">
            <tspan x="26.0025" y="65">{</tspan>
        </text>
        <text id="walk" fill="#000000" fill-rule="nonzero" font-family="Helvetica" font-size="2.82222222" font-weight="normal">
            <tspan x="17.2942265" y="78.0744672">walk</tspan>
        </text>
        <text id="{" fill="#000000" fill-rule="nonzero" font-family="Helvetica-Light, Helvetica" font-size="13" font-weight="300">
            <tspan x="26.0025" y="81">{</tspan>
        </text>
        <text id="pair" fill="#000000" fill-rule="nonzero" font-family="Helvetica" font-size="2.82222222" font-weight="normal">
            <tspan x="18.2340486" y="34.0744672">pair</tspan>
        </text>
        <text id="{" fill="#000000" fill-rule="nonzero" font-family="Helvetica-Light, Helvetica" font-size="13" font-weight="300">
            <tspan x="26.0025" y="36">{</tspan>
        </text>
        <text id="deafault-for-both-pa" fill="#000000" fill-rule="nonzero" font-family="Helvetica" font-size="2.82222222" font-weight="normal">
            <tspan x="63.940049" y="29.0744672">deafault for both</tspan>
            <tspan x="63.940049" y="33.0744672">parse --walks-policy all</tspan>
            <tspan x="63.940049" y="37.0744672">and parse2</tspan>
        </text>
        <text id="junction" fill="#000000" fill-rule="nonzero" font-family="Helvetica" font-size="2.82222222" font-weight="normal">
            <tspan x="13.2124774" y="47.0744672">junction</tspan>
        </text>
        <text id="{" fill="#000000" fill-rule="nonzero" font-family="Helvetica-Light, Helvetica" font-size="13" font-weight="300">
            <tspan x="26.0025" y="50">{</tspan>
        </text>
        <g id="g7473-9-8-0-7" transform="translate(31.808608, 14.451267)" stroke="#000000" stroke-width="0.5">
            <rect id="rect4138-6-1-5-9-5-5-2" fill="#C44E52" fill-rule="nonzero" stroke-linecap="round" x="8.32667268e-17" y="-1.11022302e-16" width="2.51439406" height="2.74181155"></rect>
            <g id="g6125-9-3-5-52-1" transform="translate(0.485824, 0.060417)">
                <polyline id="path6063-9-9-1-5-1-8-9-7" points="0.129310565 6.24500451e-17 0.87952807 1.29941462 0.12047193 2.61413837"></polyline>
                <polyline id="path6063-9-9-1-4-8-2-2-02-9" points="0.829791201 6.24500451e-17 1.5800087 1.29941462 0.820952565 2.61413837"></polyline>
            </g>
        </g>
        <g id="g7473-9-8-8-8-5" transform="translate(54.535951, 21.915422) rotate(-180.000000) translate(-54.535951, -21.915422) translate(52.535951, 20.544516)" stroke="#000000" stroke-width="0.5">
            <rect id="rect4138-6-1-5-9-5-7-3-68" fill="#DEB93E" fill-rule="nonzero" stroke-linecap="round" x="0" y="0" width="4" height="2.74181155"></rect>
            <g id="g6125-9-3-5-5-8-9" transform="translate(1.971430, 0.060417)">
                <polyline id="path6063-9-9-1-5-1-8-2-0-5" points="0.129310565 6.24500451e-17 0.87952807 1.29941462 0.12047193 2.61413837"></polyline>
                <polyline id="path6063-9-9-1-4-8-2-2-4-4-5" points="0.829791201 6.24500451e-17 1.5800087 1.29941462 0.820952565 2.61413837"></polyline>
            </g>
            <g id="g6125-9-3-5-5-8-9" transform="translate(0.501986, 0.060417)">
                <polyline id="path6063-9-9-1-5-1-8-2-0-5" points="0.129310565 6.24500451e-17 0.87952807 1.29941462 0.12047193 2.61413837"></polyline>
                <polyline id="path6063-9-9-1-4-8-2-2-4-4-5" points="0.829791201 6.24500451e-17 1.5800087 1.29941462 0.820952565 2.61413837"></polyline>
            </g>
        </g>
        <g id="g7473-9-8-8-8-5-2" transform="translate(40.211513, 9.950505) scale(-1, 1) rotate(-180.000000) translate(-40.211513, -9.950505) translate(38.954316, 8.579599)" stroke="#000000" stroke-width="0.5">
            <rect id="rect4138-6-1-5-9-5-7-3-68-1" fill="#009900" fill-rule="nonzero" stroke-linecap="round" x="8.32667268e-17" y="-1.11022302e-16" width="2.51439406" height="2.74181155"></rect>
            <g id="g6125-9-3-5-5-8-9-5" transform="translate(0.485824, 0.060417)">
                <polyline id="path6063-9-9-1-5-1-8-2-0-5-9" points="0.129310565 6.24500451e-17 0.87952807 1.29941462 0.12047193 2.61413837"></polyline>
                <polyline id="path6063-9-9-1-4-8-2-2-4-4-5-9" points="0.829791201 6.24500451e-17 1.5800087 1.29941462 0.820952565 2.61413837"></polyline>
            </g>
        </g>
        <line x1="35.8642778" y1="2.93813676" x2="38.5" y2="8.5" id="path5953-8-5-8-56-2-1" stroke="#000000" stroke-width="0.4" stroke-dasharray="1.1,1"></line>
        <line x1="43.1473973" y1="2.90047984" x2="41.5" y2="8.5" id="path5953-8-5-8-56-2-1-6" stroke="#000000" stroke-width="0.4" stroke-dasharray="1.1,1"></line>
        <text id="--report-orientation" fill="#000000" fill-rule="nonzero" font-family="Helvetica" font-size="2.82222222" font-weight="normal">
            <tspan x="0.805945285" y="25.0744672">--report-orientation</tspan>
        </text>
    </g>
</svg>