<?xml version="1.0" encoding="UTF-8"?>
<svg width="93px" height="84px" viewBox="0 0 93 84" version="1.1" xmlns="http://www.w3.org/2000/svg" xmlns:xlink="http://www.w3.org/1999/xlink">
    <title>report-orientation</title>
    <g id="Page-1" stroke="none" stroke-width="1" fill="none" fill-rule="evenodd">
        <g id="report-orientation" transform="translate(0.805945, 0.953422)">
            <polygon id="path6063-4-20-3-7-7" stroke="#000000" stroke-width="0.5" fill="#C44E52" fill-rule="nonzero" transform="translate(31.634687, 27.404351) scale(-1, 1) translate(-31.634687, -27.404351) " points="31.0347799 27.4066558 31.8941014 28.7732802 32.2345941 28.7752558 32.2345941 26.0334471 31.7898373 26.0359871"></polygon>
            <polygon id="path6063-4-20-3-7-7" stroke="#000000" stroke-width="0.5" fill="#009900" fill-rule="nonzero" points="37.0347793 27.4066558 37.8941008 28.7732802 38.2345935 28.7752558 38.2345935 26.0334471 37.7898367 26.0359871"></polygon>
            <polygon id="path6063-4-6-2-0-6-0" stroke="#000000" stroke-width="0.5" fill="#3E9ADE" fill-rule="nonzero" transform="translate(46.648540, 36.404351) scale(-1, 1) translate(-46.648540, -36.404351) " points="46.0486326 36.4066556 46.9079512 37.77328 47.2484467 37.7752556 47.2484467 35.0334469 46.8036871 35.0359869"></polygon>
            <polygon id="path6063-4-6-2-0-6-0" stroke="#000000" stroke-width="0.5" fill="#DEB93E" fill-rule="nonzero" points="57.0486313 36.4066556 57.7648411 37.77328 58.0486313 37.7752556 58.0486313 35.0334469 57.6779408 35.0359869"></polygon>
            <polygon id="path6063-4-20-3-7-7" stroke="#000000" stroke-width="0.5" fill="#009900" fill-rule="nonzero" transform="translate(37.634687, 31.404351) scale(-1, 1) translate(-37.634687, -31.404351) " points="37.0347797 31.4066556 37.8941012 32.77328 38.2345939 32.7752556 38.2345939 30.0334469 37.7898371 30.0359869"></polygon>
            <polygon id="path6063-4-6-2-0-6-0" stroke="#000000" stroke-width="0.5" fill="#3E9ADE" fill-rule="nonzero" points="46.0486328 31.4066556 46.9079514 32.77328 47.2484469 32.7752556 47.2484469 30.0334469 46.8036873 30.0359869"></polygon>
            <polygon id="path6063-4-20-3-7-7" stroke="#000000" stroke-width="0.5" fill="#C44E52" fill-rule="nonzero" points="31.0347793 41.4066558 31.8941008 42.7732802 32.2345935 42.7752558 32.2345935 40.0334471 31.7898367 40.0359871"></polygon>
            <polygon id="path6063-4-20-3-7-7" stroke="#000000" stroke-width="0.5" fill="#009900" fill-rule="nonzero" transform="translate(37.634687, 41.404351) scale(-1, 1) translate(-37.634687, -41.404351) " points="37.0347799 41.4066558 37.8941014 42.7732802 38.2345941 42.7752558 38.2345941 40.0334471 37.7898373 40.0359871"></polygon>
            <polygon id="path6063-4-6-2-0-6-0" stroke="#000000" stroke-width="0.5" fill="#3E9ADE" fill-rule="nonzero" points="46.0486327 50.4066556 46.9079513 51.77328 47.2484468 51.7752556 47.2484468 49.0334469 46.8036872 49.0359869"></polygon>
            <polygon id="path6063-4-6-2-0-6-0" stroke="#000000" stroke-width="0.5" fill="#DEB93E" fill-rule="nonzero" transform="translate(57.548632, 50.404351) scale(-1, 1) translate(-57.548632, -50.404351) " points="57.0486321 50.4066556 57.7648419 51.77328 58.0486321 51.7752556 58.0486321 49.0334469 57.6779416 49.0359869"></polygon>
            <polygon id="path6063-4-20-3-7-7" stroke="#000000" stroke-width="0.5" fill="#009900" fill-rule="nonzero" points="37.0347795 45.4066556 37.894101 46.77328 38.2345937 46.7752556 38.2345937 44.0334469 37.7898369 44.0359869"></polygon>
            <polygon id="path6063-4-6-2-0-6-0" stroke="#000000" stroke-width="0.5" fill="#3E9ADE" fill-rule="nonzero" transform="translate(46.648540, 45.404351) scale(-1, 1) translate(-46.648540, -45.404351) " points="46.0486325 45.4066556 46.9079511 46.77328 47.2484466 46.7752556 47.2484466 44.0334469 46.803687 44.0359869"></polygon>
            <polygon id="path6063-4-20-3-7-7" stroke="#000000" stroke-width="0.5" fill="#C44E52" fill-rule="nonzero" transform="translate(31.634687, 56.404351) scale(-1, 1) translate(-31.634687, -56.404351) " points="31.0347799 56.4066558 31.8941014 57.7732802 32.2345941 57.7752558 32.2345941 55.0334471 31.7898373 55.0359871"></polygon>
            <polygon id="path6063-4-20-3-7-7" stroke="#000000" stroke-width="0.5" fill="#009900" fill-rule="nonzero" transform="translate(37.634687, 56.404351) scale(-1, 1) translate(-37.634687, -56.404351) " points="37.0347799 56.4066558 37.8941014 57.7732802 38.2345941 57.7752558 38.2345941 55.0334471 37.7898373 55.0359871"></polygon>
            <polygon id="path6063-4-6-2-0-6-0" stroke="#000000" stroke-width="0.5" fill="#3E9ADE" fill-rule="nonzero" points="46.0486327 65.4066556 46.9079513 66.77328 47.2484468 66.7752556 47.2484468 64.0334469 46.8036872 64.0359869"></polygon>
            <polygon id="path6063-4-6-2-0-6-0" stroke="#000000" stroke-width="0.5" fill="#DEB93E" fill-rule="nonzero" points="57.0486313 65.4066556 57.7648411 66.77328 58.0486313 66.7752556 58.0486313 64.0334469 57.6779408 64.0359869"></polygon>
            <polygon id="path6063-4-20-3-7-7" stroke="#000000" stroke-width="0.5" fill="#009900" fill-rule="nonzero" transform="translate(37.634687, 60.404351) scale(-1, 1) translate(-37.634687, -60.404351) " points="37.0347797 60.4066556 37.8941012 61.77328 38.2345939 61.7752556 38.2345939 59.0334469 37.7898371 59.0359869"></polygon>
            <polygon id="path6063-4-6-2-0-6-0" stroke="#000000" stroke-width="0.5" fill="#3E9ADE" fill-rule="nonzero" points="46.0486328 60.4066556 46.9079514 61.77328 47.2484469 61.7752556 47.2484469 59.0334469 46.8036873 59.0359869"></polygon>
            <polygon id="path6063-4-20-3-7-7" stroke="#000000" stroke-width="0.5" fill="#C44E52" fill-rule="nonzero" transform="translate(31.634687, 72.404351) scale(-1, 1) translate(-31.634687, -72.404351) " points="31.0347799 72.4066558 31.8941014 73.7732802 32.2345941 73.7752558 32.2345941 71.0334471 31.7898373 71.0359871"></polygon>
            <polygon id="path6063-4-20-3-7-7" stroke="#000000" stroke-width="0.5" fill="#009900" fill-rule="nonzero" transform="translate(37.634687, 72.404351) scale(-1, 1) translate(-37.634687, -72.404351) " points="37.0347799 72.4066558 37.8941014 73.7732802 38.2345941 73.7752558 38.2345941 71.0334471 37.7898373 71.0359871"></polygon>
            <polygon id="path6063-4-6-2-0-6-0" stroke="#000000" stroke-width="0.5" fill="#3E9ADE" fill-rule="nonzero" transform="translate(46.648540, 81.404351) scale(-1, 1) translate(-46.648540, -81.404351) " points="46.0486326 81.4066556 46.9079512 82.77328 47.2484467 82.7752556 47.2484467 80.0334469 46.8036871 80.0359869"></polygon>
            <polygon id="path6063-4-6-2-0-6-0" stroke="#000000" stroke-width="0.5" fill="#DEB93E" fill-rule="nonzero" transform="translate(57.548632, 81.404351) scale(-1, 1) translate(-57.548632, -81.404351) " points="57.0486321 81.4066556 57.7648419 82.77328 58.0486321 82.7752556 58.0486321 80.0334469 57.6779416 80.0359869"></polygon>
            <polygon id="path6063-4-20-3-7-7" stroke="#000000" stroke-width="0.5" fill="#009900" fill-rule="nonzero" transform="translate(37.634687, 76.404351) scale(-1, 1) translate(-37.634687, -76.404351) " points="37.0347797 76.4066556 37.8941012 77.77328 38.2345939 77.7752556 38.2345939 75.0334469 37.7898371 75.0359869"></polygon>
            <polygon id="path6063-4-6-2-0-6-0" stroke="#000000" stroke-width="0.5" fill="#3E9ADE" fill-rule="nonzero" transform="translate(46.648540, 76.404351) scale(-1, 1) translate(-46.648540, -76.404351) " points="46.0486325 76.4066556 46.9079511 77.77328 47.2484466 77.7752556 47.2484466 75.0334469 46.803687 75.0359869"></polygon>
            <line x1="50.1446958" y1="0.99559924" x2="42.3554527" y2="0.99559924" id="path4191-9-2-29-3" stroke="#000000" stroke-width="0.5" stroke-dasharray="1.693333333331004,0.5644444444436679"></line>
            <line x1="27.1452627" y1="1.96846158" x2="30.6940547" y2="13.546578" id="path5953-8-5-9-9" stroke="#000000" stroke-width="0.4" stroke-dasharray="1.1,1"></line>
            <line x1="35.0240295" y1="1.96846158" x2="33.6940547" y2="13.546578" id="path5955-8-8-6-1" stroke="#000000" stroke-width="0.4" stroke-dasharray="1.1,1"></line>
            <line x1="50.3941463" y1="2.01835282" x2="45.6940547" y2="7.546578" id="path5972-8-5-0-8" stroke="#000000" stroke-width="0.4" stroke-dasharray="1.1,1"></line>
            <line x1="56.6940547" y1="1.546578" x2="48.6940547" y2="7.546578" id="path5974-4-0-2-8" stroke="#000000" stroke-width="0.4" stroke-dasharray="1.1,1"></line>
            <line x1="56.3941463" y1="2.01835282" x2="51.6940547" y2="19.546578" id="path5972-8-5-0-8" stroke="#000000" stroke-width="0.4" stroke-dasharray="1.1,1"></line>
            <line x1="65.6940547" y1="1.546578" x2="55.6940547" y2="19.546578" id="path5974-4-0-2-8" stroke="#000000" stroke-width="0.4" stroke-dasharray="1.1,1"></line>
            <g id="g7455-1-7-1-5" transform="translate(27.094459, -0.000000)" stroke="#000000" stroke-width="0.5">
                <rect id="rect4138-6-7-7-3-2" fill="#C44E52" fill-rule="nonzero" stroke-linecap="round" x="1.52655666e-16" y="0.0612360911" width="8.00856412" height="1.86873176"></rect>
                <g id="g6125-3-5-76-2-7" transform="translate(1.737020, 0.000000)">
                    <polyline id="path6063-8-1-9-1-9" points="0.1264411 0 0.88246596 0.952153593 0.11753404 1.91552505"></polyline>
                    <polyline id="path6063-9-3-74-1-5-1" points="3.09012371 0 3.84614858 0.952153593 3.08121666 1.91552505"></polyline>
                </g>
                <rect id="rect4138-6-7-7-2-9-9" fill="#009900" fill-rule="nonzero" stroke-linecap="round" x="8.00551838" y="0.0628154061" width="7.21032001" height="1.86873069"></rect>
                <g id="g6125-3-5-76-1-9-6" transform="translate(9.876804, 0.026190)">
                    <polyline id="path6063-8-1-9-7-1-3" points="0.1264411 0 0.88246596 0.952153593 0.11753404 1.91552505"></polyline>
                    <polyline id="path6063-9-3-74-1-7-4-6" points="3.09012371 0 3.84614858 0.952153593 3.08121666 1.91552505"></polyline>
                </g>
            </g>
            <rect id="rect4138-7-1-8-1-4" stroke="#000000" stroke-width="0.5" fill="#3E9ADE" fill-rule="nonzero" stroke-linecap="round" x="50.2192758" y="0.06123569" width="6" height="1.86873123"></rect>
            <rect id="rect4138-7-1-8-1-4" stroke="#000000" stroke-width="0.5" fill="#DEB93E" fill-rule="nonzero" stroke-linecap="round" x="56.2192758" y="0.06123569" width="10" height="1.86873123"></rect>
            <g id="g6125-3-4-7-8-07-6" transform="translate(58.173823, 0.997449) scale(-1, 1) translate(-58.173823, -0.997449) translate(51.746460, 0.039686)" stroke="#000000" stroke-width="0.5">
                <polyline id="path6063-8-7-0-0-5-6" points="0.1264411 0 0.88246596 0.952153593 0.11753404 1.91552505"></polyline>
                <polyline id="path6063-9-3-6-4-3-8-7" points="3.09012371 0 3.84614858 0.952153593 3.08121666 1.91552505"></polyline>
                <polyline id="path6063-9-9-3-8-0-70-7-2" points="6.05380235 0 6.80982721 0.952153593 6.04489529 1.91552505"></polyline>
                <polyline id="path6063-9-9-1-3-9-8-6-0-7" points="9.01748382 0 9.77351121 0.952153593 9.00857904 1.91552505"></polyline>
                <polyline id="path6063-9-9-1-4-80-0-5-9-48-4" points="11.9811684 0 12.737193 0.952153593 11.9722608 1.91552505"></polyline>
            </g>
            <path d="M27.3402106,7.54263187 C27.0036831,7.51963076 26.4216139,7.93230456 26.4253967,8.9959098 C26.4293383,10.059515 27.0114019,10.4716498 27.3479265,10.4486374 L58.2170867,10.4486374 L58.5682106,9.8263176 L61.4102759,9.8263176 L62.0474829,10.4486374 L66.2168731,10.4486374 C66.5820969,10.3551061 67.0252733,9.7540998 67.0184261,8.99239331 C67.0109251,8.23068682 66.572126,7.63558458 66.2091572,7.54263187 L62.0397641,7.54263187 L61.40256,8.16550478 L58.5604947,8.16550478 L58.2093707,7.54263187 L27.3402106,7.54263187 Z" id="path5671-5-9-0-1" stroke="#000000" stroke-width="0.5" fill="#FFFFFF" fill-rule="nonzero"></path>
            <path d="M27.4048479,13.4150481 C27.0683205,13.392047 26.4862513,13.8047208 26.4900341,14.8683261 C26.4939757,15.9319313 27.0760393,16.3440661 27.4125639,16.3210537 L58.281724,16.3210537 L58.632848,15.6987339 L61.4749133,15.6987339 L62.1121202,16.3210537 L66.2815105,16.3210537 C66.6467343,16.2275224 67.0899106,15.6265161 67.0830634,14.8648096 C67.0755625,14.1031031 66.6367634,13.5080008 66.2737945,13.4150481 L62.1044015,13.4150481 L61.4671973,14.037921 L58.625132,14.037921 L58.2740081,13.4150481 L27.4048479,13.4150481 Z" id="path5671-5-9-9-4-0" stroke="#000000" stroke-width="0.5" fill="#FFFFFF" fill-rule="nonzero"></path>
            <path d="M27.4048479,19.4150481 C27.0683205,19.392047 26.4862513,19.8047208 26.4900341,20.8683261 C26.4939757,21.9319313 27.0760393,22.3440661 27.4125639,22.3210537 L58.281724,22.3210537 L58.632848,21.6987339 L61.4749133,21.6987339 L62.1121202,22.3210537 L66.2815105,22.3210537 C66.6467343,22.2275224 67.0899106,21.6265161 67.0830634,20.8648096 C67.0755625,20.1031031 66.6367634,19.5080008 66.2737945,19.4150481 L62.1044015,19.4150481 L61.4671973,20.037921 L58.625132,20.037921 L58.2740081,19.4150481 L27.4048479,19.4150481 Z" id="path5671-5-9-9-4-0" stroke="#000000" stroke-width="0.5" fill="#FFFFFF" fill-rule="nonzero"></path>
            <g id="g7464-3-6-2-0" transform="translate(47.267686, 8.980006) scale(-1, 1) translate(-47.267686, -8.980006) translate(45.767686, 7.609101)" stroke="#000000" stroke-width="0.5">
                <rect id="rect4138-6-1-7-0-9-6" fill="#3E9ADE" fill-rule="nonzero" stroke-linecap="round" x="1.11022302e-16" y="2.77555756e-17" width="3" height="2.74181073"></rect>
                <g id="g6125-1-83-6-4" transform="translate(0.229949, 0.073755)">
                    <polyline id="path6063-9-9-0-21-4-7" points="0.129310566 6.24500451e-17 0.87952807 1.29941462 0.12047193 2.61413837"></polyline>
                    <polyline id="path6063-9-9-1-9-0-22-3" points="0.82979092 6.24500451e-17 1.58000842 1.29941462 0.82095228 2.61413837"></polyline>
                    <polyline id="path6063-9-9-1-4-7-5-2-4" points="1.53027155 6.24500451e-17 2.28048906 1.29941462 1.52143292 2.61413837"></polyline>
                </g>
            </g>
            <text id="read" fill="#000000" fill-rule="nonzero" font-family="Helvetica" font-size="2.82222222" font-weight="normal">
                <tspan x="16.4855251" y="61.1210452">read</tspan>
            </text>
            <text id="{" fill="#000000" fill-rule="nonzero" font-family="Helvetica-Light, Helvetica" font-size="13" font-weight="300">
                <tspan x="25.1965547" y="64.046578">{</tspan>
            </text>
            <text id="walk" fill="#000000" fill-rule="nonzero" font-family="Helvetica" font-size="2.82222222" font-weight="normal">
                <tspan x="16.4882812" y="77.1210452">walk</tspan>
            </text>
            <text id="{" fill="#000000" fill-rule="nonzero" font-family="Helvetica-Light, Helvetica" font-size="13" font-weight="300">
                <tspan x="25.1965547" y="80.046578">{</tspan>
            </text>
            <text id="pair" fill="#000000" fill-rule="nonzero" font-family="Helvetica" font-size="2.82222222" font-weight="normal">
                <tspan x="17.4281033" y="33.1210452">pair</tspan>
            </text>
            <text id="{" fill="#000000" fill-rule="nonzero" font-family="Helvetica-Light, Helvetica" font-size="13" font-weight="300">
                <tspan x="25.1965547" y="35.046578">{</tspan>
            </text>
            <text id="default-for-both" fill="#000000" fill-rule="nonzero" font-family="Helvetica" font-size="2.82222222" font-weight="normal">
                <tspan x="63.1341037" y="28.1210452">default for both</tspan>
            </text>
            <text id="parse---walks-policy-all" fill="#000000" fill-rule="nonzero" font-family="Helvetica" font-size="2.82222222" font-weight="normal">
                <tspan x="63.1341037" y="32.1210452">parse --walks-policy all</tspan>
            </text>
            <text id="and-parse2" fill="#000000" fill-rule="nonzero" font-family="Helvetica" font-size="2.82222222" font-weight="normal">
                <tspan x="63.1341037" y="36.1210452">and parse2</tspan>
            </text>
            <text id="junction" fill="#000000" fill-rule="nonzero" font-family="Helvetica" font-size="2.82222222" font-weight="normal">
                <tspan x="12.4065321" y="46.1210452">junction</tspan>
            </text>
            <text id="{" fill="#000000" fill-rule="nonzero" font-family="Helvetica-Light, Helvetica" font-size="13" font-weight="300">
                <tspan x="25.1965547" y="49.046578">{</tspan>
            </text>
            <g id="g7473-9-8-0-7" transform="translate(31.002663, 13.497845)" stroke="#000000" stroke-width="0.5">
                <rect id="rect4138-6-1-5-9-5-5-2" fill="#C44E52" fill-rule="nonzero" stroke-linecap="round" x="8.32667268e-17" y="-1.11022302e-16" width="2.51439406" height="2.74181155"></rect>
                <g id="g6125-9-3-5-52-1" transform="translate(0.485824, 0.060417)">
                    <polyline id="path6063-9-9-1-5-1-8-9-7" points="0.129310565 6.24500451e-17 0.87952807 1.29941462 0.12047193 2.61413837"></polyline>
                    <polyline id="path6063-9-9-1-4-8-2-2-02-9" points="0.829791201 6.24500451e-17 1.5800087 1.29941462 0.820952565 2.61413837"></polyline>
                </g>
            </g>
            <g id="g7473-9-8-8-8-5" transform="translate(53.730006, 20.962000) rotate(-180.000000) translate(-53.730006, -20.962000) translate(51.730006, 19.591094)" stroke="#000000" stroke-width="0.5">
                <rect id="rect4138-6-1-5-9-5-7-3-68" fill="#DEB93E" fill-rule="nonzero" stroke-linecap="round" x="0" y="0" width="4" height="2.74181155"></rect>
                <g id="g6125-9-3-5-5-8-9" transform="translate(1.971430, 0.060417)">
                    <polyline id="path6063-9-9-1-5-1-8-2-0-5" points="0.129310565 6.24500451e-17 0.87952807 1.29941462 0.12047193 2.61413837"></polyline>
                    <polyline id="path6063-9-9-1-4-8-2-2-4-4-5" points="0.829791201 6.24500451e-17 1.5800087 1.29941462 0.820952565 2.61413837"></polyline>
                </g>
                <g id="g6125-9-3-5-5-8-9" transform="translate(0.501986, 0.060417)">
                    <polyline id="path6063-9-9-1-5-1-8-2-0-5" points="0.129310565 6.24500451e-17 0.87952807 1.29941462 0.12047193 2.61413837"></polyline>
                    <polyline id="path6063-9-9-1-4-8-2-2-4-4-5" points="0.829791201 6.24500451e-17 1.5800087 1.29941462 0.820952565 2.61413837"></polyline>
                </g>
            </g>
            <g id="g7473-9-8-8-8-5-2" transform="translate(39.405568, 8.997083) scale(-1, 1) rotate(-180.000000) translate(-39.405568, -8.997083) translate(38.148371, 7.626177)" stroke="#000000" stroke-width="0.5">
                <rect id="rect4138-6-1-5-9-5-7-3-68-1" fill="#009900" fill-rule="nonzero" stroke-linecap="round" x="8.32667268e-17" y="-1.11022302e-16" width="2.51439406" height="2.74181155"></rect>
                <g id="g6125-9-3-5-5-8-9-5" transform="translate(0.485824, 0.060417)">
                    <polyline id="path6063-9-9-1-5-1-8-2-0-5-9" points="0.129310565 6.24500451e-17 0.87952807 1.29941462 0.12047193 2.61413837"></polyline>
                    <polyline id="path6063-9-9-1-4-8-2-2-4-4-5-9" points="0.829791201 6.24500451e-17 1.5800087 1.29941462 0.820952565 2.61413837"></polyline>
                </g>
            </g>
            <line x1="35.0583325" y1="1.98471476" x2="37.6940547" y2="7.546578" id="path5953-8-5-8-56-2-1" stroke="#000000" stroke-width="0.4" stroke-dasharray="1.1,1"></line>
            <line x1="42.341452" y1="1.94705784" x2="40.6940547" y2="7.546578" id="path5953-8-5-8-56-2-1-6" stroke="#000000" stroke-width="0.4" stroke-dasharray="1.1,1"></line>
            <text id="--report-orientation" fill="#000000" fill-rule="nonzero" font-family="Helvetica" font-size="2.82222222" font-weight="normal">
                <tspan x="0" y="24.1210452">--report-orientation</tspan>
            </text>
        </g>
    </g>
</svg>