<?xml version="1.0" encoding="UTF-8"?>
<svg width="88px" height="85px" viewBox="0 0 88 85" version="1.1" xmlns="http://www.w3.org/2000/svg" xmlns:xlink="http://www.w3.org/1999/xlink">
    <title>Slice 1</title>
    <g id="Page-1" stroke="none" stroke-width="1" fill="none" fill-rule="evenodd">
        <line x1="47.9506411" y1="1.94902124" x2="40.161398" y2="1.94902124" id="path4191-9-2-29-3" stroke="#000000" stroke-width="0.5" stroke-dasharray="1.693333333331004,0.5644444444436679"></line>
        <line x1="24.951208" y1="2.92188358" x2="28.5" y2="14.5" id="path5953-8-5-9-9" stroke="#000000" stroke-width="0.4" stroke-dasharray="1.1,1"></line>
        <line x1="32.8299748" y1="2.92188358" x2="31.5" y2="14.5" id="path5955-8-8-6-1" stroke="#000000" stroke-width="0.4" stroke-dasharray="1.1,1"></line>
        <line x1="48.2000916" y1="2.97177482" x2="43.5" y2="8.5" id="path5972-8-5-0-8" stroke="#000000" stroke-width="0.4" stroke-dasharray="1.1,1"></line>
        <line x1="54.5" y1="2.5" x2="46.5" y2="8.5" id="path5974-4-0-2-8" stroke="#000000" stroke-width="0.4" stroke-dasharray="1.1,1"></line>
        <line x1="54.2000916" y1="2.97177482" x2="49.5" y2="20.5" id="path5972-8-5-0-8" stroke="#000000" stroke-width="0.4" stroke-dasharray="1.1,1"></line>
        <line x1="63.5" y1="2.5" x2="53.5" y2="20.5" id="path5974-4-0-2-8" stroke="#000000" stroke-width="0.4" stroke-dasharray="1.1,1"></line>
        <g id="g7455-1-7-1-5" transform="translate(24.900404, 0.953422)" stroke="#000000" stroke-width="0.5">
            <rect id="rect4138-6-7-7-3-2" fill="#C44E52" fill-rule="nonzero" stroke-linecap="round" x="1.52655666e-16" y="0.0612360911" width="8.00856412" height="1.86873176"></rect>
            <g id="g6125-3-5-76-2-7" transform="translate(1.737020, -0.000000)">
                <polyline id="path6063-8-1-9-1-9" points="0.1264411 0 0.88246596 0.952153593 0.11753404 1.91552505"></polyline>
                <polyline id="path6063-9-3-74-1-5-1" points="3.09012371 0 3.84614858 0.952153593 3.08121666 1.91552505"></polyline>
            </g>
            <rect id="rect4138-6-7-7-2-9-9" fill="#009900" fill-rule="nonzero" stroke-linecap="round" x="8.00551838" y="0.0628154061" width="7.21032001" height="1.86873069"></rect>
            <g id="g6125-3-5-76-1-9-6" transform="translate(9.876804, 0.026190)">
                <polyline id="path6063-8-1-9-7-1-3" points="0.1264411 0 0.88246596 0.952153593 0.11753404 1.91552505"></polyline>
                <polyline id="path6063-9-3-74-1-7-4-6" points="3.09012371 0 3.84614858 0.952153593 3.08121666 1.91552505"></polyline>
            </g>
        </g>
        <rect id="rect4138-7-1-8-1-4" stroke="#000000" stroke-width="0.5" fill="#3E9ADE" fill-rule="nonzero" stroke-linecap="round" x="48.0252211" y="1.01465769" width="6" height="1.86873123"></rect>
        <rect id="rect4138-7-1-8-1-4" stroke="#000000" stroke-width="0.5" fill="#DEB93E" fill-rule="nonzero" stroke-linecap="round" x="54.0252211" y="1.01465769" width="10" height="1.86873123"></rect>
        <g id="g6125-3-4-7-8-07-6" transform="translate(55.979769, 1.950870) scale(-1, 1) translate(-55.979769, -1.950870) translate(49.552406, 0.993108)" stroke="#000000" stroke-width="0.5">
            <polyline id="path6063-8-7-0-0-5-6" points="0.1264411 0 0.88246596 0.952153593 0.11753404 1.91552505"></polyline>
            <polyline id="path6063-9-3-6-4-3-8-7" points="3.09012371 0 3.84614858 0.952153593 3.08121666 1.91552505"></polyline>
            <polyline id="path6063-9-9-3-8-0-70-7-2" points="6.05380235 0 6.80982721 0.952153593 6.04489529 1.91552505"></polyline>
            <polyline id="path6063-9-9-1-3-9-8-6-0-7" points="9.01748382 0 9.77351121 0.952153593 9.00857904 1.91552505"></polyline>
            <polyline id="path6063-9-9-1-4-80-0-5-9-48-4" points="11.9811684 0 12.737193 0.952153593 11.9722608 1.91552505"></polyline>
        </g>
        <path d="M25.1461559,8.49605387 C24.8096284,8.47305276 24.2275592,8.88572656 24.2313605,9.9493318 C24.2352836,11.012937 24.8173472,11.4250718 25.1538718,11.4020594 L56.023032,11.4020594 L56.3741559,10.7797396 L59.2162212,10.7797396 L59.8534282,11.4020594 L64.0228184,11.4020594 C64.3880422,11.3085281 64.8312186,10.7075218 64.8242912,9.94581531 C64.8168704,9.18410882 64.3780713,8.58900658 64.0151025,8.49605387 L59.8457094,8.49605387 L59.2085053,9.11892678 L56.36644,9.11892678 L56.015316,8.49605387 L25.1461559,8.49605387 Z" id="path5671-5-9-0-1" stroke="#000000" stroke-width="0.5" fill="#FFFFFF" fill-rule="nonzero"></path>
        <path d="M25.2107932,14.3684701 C24.8742658,14.345469 24.2921966,14.7581428 24.2959979,15.8217481 C24.299921,16.8853533 24.8819846,17.2974881 25.2185092,17.2744757 L56.0876693,17.2744757 L56.4387933,16.6521559 L59.2808586,16.6521559 L59.9180655,17.2744757 L64.0874558,17.2744757 C64.4526796,17.1809444 64.8958559,16.5799381 64.8889285,15.8182316 C64.8815078,15.0565251 64.4427087,14.4614228 64.0797398,14.3684701 L59.9103468,14.3684701 L59.2731426,14.991343 L56.4310773,14.991343 L56.0799534,14.3684701 L25.2107932,14.3684701 Z" id="path5671-5-9-9-4-0" stroke="#000000" stroke-width="0.5" fill="#FFFFFF" fill-rule="nonzero"></path>
        <path d="M25.2107932,20.3684701 C24.8742658,20.345469 24.2921966,20.7581428 24.2959979,21.8217481 C24.299921,22.8853533 24.8819846,23.2974881 25.2185092,23.2744757 L56.0876693,23.2744757 L56.4387933,22.6521559 L59.2808586,22.6521559 L59.9180655,23.2744757 L64.0874558,23.2744757 C64.4526796,23.1809444 64.8958559,22.5799381 64.8889285,21.8182316 C64.8815078,21.0565251 64.4427087,20.4614228 64.0797398,20.3684701 L59.9103468,20.3684701 L59.2731426,20.991343 L56.4310773,20.991343 L56.0799534,20.3684701 L25.2107932,20.3684701 Z" id="path5671-5-9-9-4-0" stroke="#000000" stroke-width="0.5" fill="#FFFFFF" fill-rule="nonzero"></path>
        <g id="g7464-3-6-2-0" transform="translate(45.073631, 9.933428) scale(-1, 1) translate(-45.073631, -9.933428) translate(43.573631, 8.562523)" stroke="#000000" stroke-width="0.5">
            <rect id="rect4138-6-1-7-0-9-6" fill="#3E9ADE" fill-rule="nonzero" stroke-linecap="round" x="1.11022302e-16" y="2.77555756e-17" width="3" height="2.74181073"></rect>
            <g id="g6125-1-83-6-4" transform="translate(0.229949, 0.073755)">
                <polyline id="path6063-9-9-0-21-4-7" points="0.129310566 6.24500451e-17 0.87952807 1.29941462 0.12047193 2.61413837"></polyline>
                <polyline id="path6063-9-9-1-9-0-22-3" points="0.82979092 6.24500451e-17 1.58000842 1.29941462 0.82095228 2.61413837"></polyline>
                <polyline id="path6063-9-9-1-4-7-5-2-4" points="1.53027155 6.24500451e-17 2.28048906 1.29941462 1.52143292 2.61413837"></polyline>
            </g>
        </g>
        <g id="Group-5" transform="translate(13.940049, 52.000000)" fill-rule="nonzero">
            <g id="Group" transform="translate(13.449962, 2.074467)">
                <g id="g7464-3-6-2-0" transform="translate(18.109989, 11.425533) scale(-1, 1) translate(-18.109989, -11.425533) translate(16.609989, 10.925533)" fill="#3E9ADE" stroke="#000000" stroke-linecap="round" stroke-width="0.5">
                    <rect id="rect4138-6-1-7-0-9-6" x="0" y="0" width="3" height="1"></rect>
                </g>
                <g id="g7473-9-8-8-8-5" transform="translate(24.609989, 11.425533) rotate(-180.000000) translate(-24.609989, -11.425533) translate(22.609989, 10.925533)" fill="#DEB93E" stroke="#000000" stroke-linecap="round" stroke-width="0.5">
                    <rect id="rect4138-6-1-5-9-5-7-3-68" x="0" y="0" width="4" height="1"></rect>
                </g>
                <g id="g7473-9-8-8-8-5-2" transform="translate(9.109989, 3.425533) scale(-1, 1) rotate(-180.000000) translate(-9.109989, -3.425533) translate(7.609989, 2.925533)" fill="#009900" stroke="#000000" stroke-linecap="round" stroke-width="0.5">
                    <rect id="rect4138-6-1-5-9-5-7-3-68-1" x="0" y="0" width="3" height="1"></rect>
                </g>
                <g id="g7473-9-8-0-7" transform="translate(1.609989, 2.925533)" fill="#C44E52" stroke="#000000" stroke-linecap="round" stroke-width="0.5">
                    <rect id="rect4138-6-1-5-9-5-5-2" x="0" y="0" width="3" height="1"></rect>
                </g>
                <text id="*" fill="#000000" font-family="Helvetica" font-size="5" font-weight="normal">
                    <tspan x="-3.55271368e-15" y="5">*</tspan>
                </text>
                <text id="*" fill="#000000" font-family="Helvetica" font-size="5" font-weight="normal">
                    <tspan x="6" y="5">*</tspan>
                </text>
                <text id="*" fill="#000000" font-family="Helvetica" font-size="5" font-weight="normal">
                    <tspan x="19" y="13">*</tspan>
                </text>
                <g id="g7464-3-6-2-0" transform="translate(18.109989, 7.425533) scale(-1, 1) translate(-18.109989, -7.425533) translate(16.609989, 6.925533)" fill="#3E9ADE" stroke="#000000" stroke-linecap="round" stroke-width="0.5">
                    <rect id="rect4138-6-1-7-0-9-6" x="0" y="0" width="3" height="1"></rect>
                </g>
                <g id="g7473-9-8-8-8-5-2" transform="translate(9.109989, 7.425533) scale(-1, 1) rotate(-180.000000) translate(-9.109989, -7.425533) translate(7.609989, 6.925533)" fill="#009900" stroke="#000000" stroke-linecap="round" stroke-width="0.5">
                    <rect id="rect4138-6-1-5-9-5-7-3-68-1" x="0" y="0" width="3" height="1"></rect>
                </g>
                <text id="*" fill="#000000" font-family="Helvetica" font-size="5" font-weight="normal">
                    <tspan x="6" y="9">*</tspan>
                </text>
                <text id="*" fill="#000000" font-family="Helvetica" font-size="5" font-weight="normal">
                    <tspan x="19" y="9">*</tspan>
                </text>
                <text id="*" fill="#000000" font-family="Helvetica" font-size="5" font-weight="normal">
                    <tspan x="26" y="13">*</tspan>
                </text>
            </g>
            <text id="read" fill="#000000" font-family="Helvetica" font-size="2.82222222" font-weight="normal">
                <tspan x="0.351421445" y="10.0744672">read</tspan>
            </text>
            <text id="{" fill="#000000" font-family="Helvetica-Light, Helvetica" font-size="13" font-weight="300">
                <tspan x="9.062451" y="13">{</tspan>
            </text>
        </g>
        <g id="Group-7" transform="translate(13.940049, 68.000000)" fill-rule="nonzero">
            <g id="Group-3" transform="translate(13.449962, 2.074467)">
                <g id="g7464-3-6-2-0" transform="translate(18.109989, 11.425533) scale(-1, 1) translate(-18.109989, -11.425533) translate(16.609989, 10.925533)" fill="#3E9ADE" stroke="#000000" stroke-linecap="round" stroke-width="0.5">
                    <rect id="rect4138-6-1-7-0-9-6" x="0" y="0" width="3" height="1"></rect>
                </g>
                <g id="g7473-9-8-8-8-5" transform="translate(24.609989, 11.425533) rotate(-180.000000) translate(-24.609989, -11.425533) translate(22.609989, 10.925533)" fill="#DEB93E" stroke="#000000" stroke-linecap="round" stroke-width="0.5">
                    <rect id="rect4138-6-1-5-9-5-7-3-68" x="0" y="0" width="4" height="1"></rect>
                </g>
                <g id="g7473-9-8-8-8-5-2" transform="translate(9.109989, 3.425533) scale(-1, 1) rotate(-180.000000) translate(-9.109989, -3.425533) translate(7.609989, 2.925533)" fill="#009900" stroke="#000000" stroke-linecap="round" stroke-width="0.5">
                    <rect id="rect4138-6-1-5-9-5-7-3-68-1" x="0" y="0" width="3" height="1"></rect>
                </g>
                <g id="g7473-9-8-0-7" transform="translate(1.609989, 2.925533)" fill="#C44E52" stroke="#000000" stroke-linecap="round" stroke-width="0.5">
                    <rect id="rect4138-6-1-5-9-5-5-2" x="0" y="0" width="3" height="1"></rect>
                </g>
                <text id="*" fill="#000000" font-family="Helvetica" font-size="5" font-weight="normal">
                    <tspan x="3.55271368e-15" y="5">*</tspan>
                </text>
                <text id="*" fill="#000000" font-family="Helvetica" font-size="5" font-weight="normal">
                    <tspan x="6" y="5">*</tspan>
                </text>
                <text id="*" fill="#000000" font-family="Helvetica" font-size="5" font-weight="normal">
                    <tspan x="15" y="13">*</tspan>
                </text>
                <g id="g7464-3-6-2-0" transform="translate(18.109989, 7.425533) scale(-1, 1) translate(-18.109989, -7.425533) translate(16.609989, 6.925533)" fill="#3E9ADE" stroke="#000000" stroke-linecap="round" stroke-width="0.5">
                    <rect id="rect4138-6-1-7-0-9-6" x="0" y="0" width="3" height="1"></rect>
                </g>
                <g id="g7473-9-8-8-8-5-2" transform="translate(9.109989, 7.425533) scale(-1, 1) rotate(-180.000000) translate(-9.109989, -7.425533) translate(7.609989, 6.925533)" fill="#009900" stroke="#000000" stroke-linecap="round" stroke-width="0.5">
                    <rect id="rect4138-6-1-5-9-5-7-3-68-1" x="0" y="0" width="3" height="1"></rect>
                </g>
                <text id="*" fill="#000000" font-family="Helvetica" font-size="5" font-weight="normal">
                    <tspan x="6" y="9">*</tspan>
                </text>
                <text id="*" fill="#000000" font-family="Helvetica" font-size="5" font-weight="normal">
                    <tspan x="15" y="9">*</tspan>
                </text>
                <text id="*" fill="#000000" font-family="Helvetica" font-size="5" font-weight="normal">
                    <tspan x="21" y="13">*</tspan>
                </text>
            </g>
            <text id="walk" fill="#000000" font-family="Helvetica" font-size="2.82222222" font-weight="normal">
                <tspan x="0.354177522" y="10.0744672">walk</tspan>
            </text>
            <text id="{" fill="#000000" font-family="Helvetica-Light, Helvetica" font-size="13" font-weight="300">
                <tspan x="9.062451" y="13">{</tspan>
            </text>
        </g>
        <g id="Group-9" transform="translate(12.940049, 23.000000)" fill-rule="nonzero">
            <g id="Group-8">
                <g id="Group-4" transform="translate(14.449962, 2.074467)">
                    <g id="g7464-3-6-2-0" transform="translate(18.109989, 11.425533) scale(-1, 1) translate(-18.109989, -11.425533) translate(16.609989, 10.925533)" fill="#3E9ADE" stroke="#000000" stroke-linecap="round" stroke-width="0.5">
                        <rect id="rect4138-6-1-7-0-9-6" x="0" y="0" width="3" height="1"></rect>
                    </g>
                    <g id="g7473-9-8-8-8-5" transform="translate(24.609989, 11.425533) rotate(-180.000000) translate(-24.609989, -11.425533) translate(22.609989, 10.925533)" fill="#DEB93E" stroke="#000000" stroke-linecap="round" stroke-width="0.5">
                        <rect id="rect4138-6-1-5-9-5-7-3-68" x="0" y="0" width="4" height="1"></rect>
                    </g>
                    <g id="g7473-9-8-8-8-5-2" transform="translate(9.109989, 3.425533) scale(-1, 1) rotate(-180.000000) translate(-9.109989, -3.425533) translate(7.609989, 2.925533)" fill="#009900" stroke="#000000" stroke-linecap="round" stroke-width="0.5">
                        <rect id="rect4138-6-1-5-9-5-7-3-68-1" x="0" y="0" width="3" height="1"></rect>
                    </g>
                    <g id="g7473-9-8-0-7" transform="translate(1.609989, 2.925533)" fill="#C44E52" stroke="#000000" stroke-linecap="round" stroke-width="0.5">
                        <rect id="rect4138-6-1-5-9-5-5-2" x="0" y="0" width="3" height="1"></rect>
                    </g>
                    <text id="*" fill="#000000" font-family="Helvetica" font-size="5" font-weight="normal">
                        <tspan x="3.55271368e-15" y="5">*</tspan>
                    </text>
                    <text id="*" fill="#000000" font-family="Helvetica" font-size="5" font-weight="normal">
                        <tspan x="10" y="5">*</tspan>
                    </text>
                    <text id="*" fill="#000000" font-family="Helvetica" font-size="5" font-weight="normal">
                        <tspan x="15" y="13">*</tspan>
                    </text>
                    <g id="g7464-3-6-2-0" transform="translate(18.109989, 7.425533) scale(-1, 1) translate(-18.109989, -7.425533) translate(16.609989, 6.925533)" fill="#3E9ADE" stroke="#000000" stroke-linecap="round" stroke-width="0.5">
                        <rect id="rect4138-6-1-7-0-9-6" x="0" y="0" width="3" height="1"></rect>
                    </g>
                    <g id="g7473-9-8-8-8-5-2" transform="translate(9.109989, 7.425533) scale(-1, 1) rotate(-180.000000) translate(-9.109989, -7.425533) translate(7.609989, 6.925533)" fill="#009900" stroke="#000000" stroke-linecap="round" stroke-width="0.5">
                        <rect id="rect4138-6-1-5-9-5-7-3-68-1" x="0" y="0" width="3" height="1"></rect>
                    </g>
                    <text id="*" fill="#000000" font-family="Helvetica" font-size="5" font-weight="normal">
                        <tspan x="6" y="9">*</tspan>
                    </text>
                    <text id="*" fill="#000000" font-family="Helvetica" font-size="5" font-weight="normal">
                        <tspan x="19" y="9">*</tspan>
                    </text>
                    <text id="*" fill="#000000" font-family="Helvetica" font-size="5" font-weight="normal">
                        <tspan x="26" y="13">*</tspan>
                    </text>
                </g>
                <text id="outer" fill="#000000" font-family="Helvetica" font-size="2.82222222" font-weight="normal">
                    <tspan x="0.567317713" y="11.0744672">outer</tspan>
                </text>
                <text id="{" fill="#000000" font-family="Helvetica-Light, Helvetica" font-size="13" font-weight="300">
                    <tspan x="10.062451" y="13">{</tspan>
                </text>
            </g>
            <text id="deafault-for-parse--" fill="#000000" font-family="Helvetica" font-size="2.82222222" font-weight="normal">
                <tspan x="46" y="8.0744672">deafault for</tspan>
                <tspan x="46" y="12.0744672">parse --walks-policy all</tspan>
            </text>
        </g>
        <g id="Group-10" transform="translate(9.940049, 37.000000)" fill-rule="nonzero">
            <g id="Group-6">
                <g id="Group-2" transform="translate(19.059951, 3.074467)">
                    <g id="g7464-3-6-2-0" transform="translate(16.500000, 11.425533) scale(-1, 1) translate(-16.500000, -11.425533) translate(15.000000, 10.925533)" fill="#3E9ADE" stroke="#000000" stroke-linecap="round" stroke-width="0.5">
                        <rect id="rect4138-6-1-7-0-9-6" x="0" y="0" width="3" height="1"></rect>
                    </g>
                    <g id="g7473-9-8-8-8-5" transform="translate(23.000000, 11.425533) rotate(-180.000000) translate(-23.000000, -11.425533) translate(21.000000, 10.925533)" fill="#DEB93E" stroke="#000000" stroke-linecap="round" stroke-width="0.5">
                        <rect id="rect4138-6-1-5-9-5-7-3-68" x="0" y="0" width="4" height="1"></rect>
                    </g>
                    <g id="g7473-9-8-8-8-5-2" transform="translate(7.500000, 3.425533) scale(-1, 1) rotate(-180.000000) translate(-7.500000, -3.425533) translate(6.000000, 2.925533)" fill="#009900" stroke="#000000" stroke-linecap="round" stroke-width="0.5">
                        <rect id="rect4138-6-1-5-9-5-7-3-68-1" x="0" y="0" width="3" height="1"></rect>
                    </g>
                    <g id="g7473-9-8-0-7" transform="translate(0.000000, 2.925533)" fill="#C44E52" stroke="#000000" stroke-linecap="round" stroke-width="0.5">
                        <rect id="rect4138-6-1-5-9-5-5-2" x="0" y="0" width="3" height="1"></rect>
                    </g>
                    <text id="*" fill="#000000" font-family="Helvetica" font-size="5" font-weight="normal">
                        <tspan x="2.390011" y="5">*</tspan>
                    </text>
                    <text id="*" fill="#000000" font-family="Helvetica" font-size="5" font-weight="normal">
                        <tspan x="4.390011" y="5">*</tspan>
                    </text>
                    <text id="*" fill="#000000" font-family="Helvetica" font-size="5" font-weight="normal">
                        <tspan x="17.390011" y="13">*</tspan>
                    </text>
                    <g id="g7464-3-6-2-0" transform="translate(16.500000, 7.425533) scale(-1, 1) translate(-16.500000, -7.425533) translate(15.000000, 6.925533)" fill="#3E9ADE" stroke="#000000" stroke-linecap="round" stroke-width="0.5">
                        <rect id="rect4138-6-1-7-0-9-6" x="0" y="0" width="3" height="1"></rect>
                    </g>
                    <g id="g7473-9-8-8-8-5-2" transform="translate(7.500000, 7.425533) scale(-1, 1) rotate(-180.000000) translate(-7.500000, -7.425533) translate(6.000000, 6.925533)" fill="#009900" stroke="#000000" stroke-linecap="round" stroke-width="0.5">
                        <rect id="rect4138-6-1-5-9-5-7-3-68-1" x="0" y="0" width="3" height="1"></rect>
                    </g>
                    <text id="*" fill="#000000" font-family="Helvetica" font-size="5" font-weight="normal">
                        <tspan x="8.390011" y="9">*</tspan>
                    </text>
                    <text id="*" fill="#000000" font-family="Helvetica" font-size="5" font-weight="normal">
                        <tspan x="13.390011" y="9">*</tspan>
                    </text>
                    <text id="*" fill="#000000" font-family="Helvetica" font-size="5" font-weight="normal">
                        <tspan x="19.390011" y="13">*</tspan>
                    </text>
                </g>
                <text id="junction" fill="#000000" font-family="Helvetica" font-size="2.82222222" font-weight="normal">
                    <tspan x="0.272428393" y="10.0744672">junction</tspan>
                </text>
                <text id="{" fill="#000000" font-family="Helvetica-Light, Helvetica" font-size="13" font-weight="300">
                    <tspan x="13.062451" y="13">{</tspan>
                </text>
            </g>
            <text id="deafult-for-parse2" fill="#000000" font-family="Helvetica" font-size="2.82222222" font-weight="normal">
                <tspan x="49" y="10.0744672">deafult for </tspan>
                <tspan x="49" y="14.0744672">parse2</tspan>
            </text>
        </g>
        <g id="g7473-9-8-0-7" transform="translate(28.808608, 14.451267)" stroke="#000000" stroke-width="0.5">
            <rect id="rect4138-6-1-5-9-5-5-2" fill="#C44E52" fill-rule="nonzero" stroke-linecap="round" x="8.32667268e-17" y="-1.11022302e-16" width="2.51439406" height="2.74181155"></rect>
            <g id="g6125-9-3-5-52-1" transform="translate(0.485824, 0.060417)">
                <polyline id="path6063-9-9-1-5-1-8-9-7" points="0.129310565 6.24500451e-17 0.87952807 1.29941462 0.12047193 2.61413837"></polyline>
                <polyline id="path6063-9-9-1-4-8-2-2-02-9" points="0.829791201 6.24500451e-17 1.5800087 1.29941462 0.820952565 2.61413837"></polyline>
            </g>
        </g>
        <g id="g7473-9-8-8-8-5" transform="translate(51.535951, 21.915422) rotate(-180.000000) translate(-51.535951, -21.915422) translate(49.535951, 20.544516)" stroke="#000000" stroke-width="0.5">
            <rect id="rect4138-6-1-5-9-5-7-3-68" fill="#DEB93E" fill-rule="nonzero" stroke-linecap="round" x="0" y="0" width="4" height="2.74181155"></rect>
            <g id="g6125-9-3-5-5-8-9" transform="translate(1.971430, 0.060417)">
                <polyline id="path6063-9-9-1-5-1-8-2-0-5" points="0.129310565 6.24500451e-17 0.87952807 1.29941462 0.12047193 2.61413837"></polyline>
                <polyline id="path6063-9-9-1-4-8-2-2-4-4-5" points="0.829791201 6.24500451e-17 1.5800087 1.29941462 0.820952565 2.61413837"></polyline>
            </g>
            <g id="g6125-9-3-5-5-8-9" transform="translate(0.501986, 0.060417)">
                <polyline id="path6063-9-9-1-5-1-8-2-0-5" points="0.129310565 6.24500451e-17 0.87952807 1.29941462 0.12047193 2.61413837"></polyline>
                <polyline id="path6063-9-9-1-4-8-2-2-4-4-5" points="0.829791201 6.24500451e-17 1.5800087 1.29941462 0.820952565 2.61413837"></polyline>
            </g>
        </g>
        <g id="g7473-9-8-8-8-5-2" transform="translate(37.211513, 9.950505) scale(-1, 1) rotate(-180.000000) translate(-37.211513, -9.950505) translate(35.954316, 8.579599)" stroke="#000000" stroke-width="0.5">
            <rect id="rect4138-6-1-5-9-5-7-3-68-1" fill="#009900" fill-rule="nonzero" stroke-linecap="round" x="8.32667268e-17" y="-1.11022302e-16" width="2.51439406" height="2.74181155"></rect>
            <g id="g6125-9-3-5-5-8-9-5" transform="translate(0.485824, 0.060417)">
                <polyline id="path6063-9-9-1-5-1-8-2-0-5-9" points="0.129310565 6.24500451e-17 0.87952807 1.29941462 0.12047193 2.61413837"></polyline>
                <polyline id="path6063-9-9-1-4-8-2-2-4-4-5-9" points="0.829791201 6.24500451e-17 1.5800087 1.29941462 0.820952565 2.61413837"></polyline>
            </g>
        </g>
        <line x1="32.8642778" y1="2.93813676" x2="35.5" y2="8.5" id="path5953-8-5-8-56-2-1" stroke="#000000" stroke-width="0.4" stroke-dasharray="1.1,1"></line>
        <line x1="40.1473973" y1="2.90047984" x2="38.5" y2="8.5" id="path5953-8-5-8-56-2-1-6" stroke="#000000" stroke-width="0.4" stroke-dasharray="1.1,1"></line>
        <text id="--report-position" fill="#000000" fill-rule="nonzero" font-family="Helvetica" font-size="2.82222222" font-weight="normal">
            <tspan x="0.805945285" y="25.0744672">--report-position</tspan>
        </text>
    </g>
</svg>