<?xml version="1.0" encoding="UTF-8"?>
<svg width="105px" height="51px" viewBox="0 0 105 51" version="1.1" xmlns="http://www.w3.org/2000/svg" xmlns:xlink="http://www.w3.org/1999/xlink" style="background: #FFFFFF;">
    <title>Slice 1</title>
    <g id="Page-1" stroke="none" stroke-width="1" fill="none" fill-rule="evenodd">
        <line x1="45.5987919" y1="2.10448211" x2="37.8095489" y2="2.10448211" id="path4191-9-2-29-3" stroke="#000000" stroke-width="0.5" stroke-dasharray="1.693333333331004,0.5644444444436679"></line>
        <line x1="22.5" y1="3.5" x2="29.1481509" y2="11.6554611" id="path5953-8-5-9-9" stroke="#000000" stroke-width="0.2"></line>
        <line x1="28.5" y1="3.5" x2="26.1481509" y2="11.6554611" id="path5955-8-8-6-1" stroke="#000000" stroke-width="0.2"></line>
        <line x1="45.5" y1="3.5" x2="32.5" y2="7.5" id="path5972-8-5-0-8" stroke="#000000" stroke-width="0.2"></line>
        <line x1="33.5" y1="3.5" x2="41.2348405" y2="7.57365264" id="path5972-8-5-0-8" stroke="#000000" stroke-width="0.2"></line>
        <line x1="50.5" y1="3.5" x2="35.5" y2="7.5" id="path5974-4-0-2-8" stroke="#000000" stroke-width="0.2"></line>
        <line x1="38.5" y1="3.5" x2="44.5" y2="7.5" id="path5974-4-0-2-8" stroke="#000000" stroke-width="0.2"></line>
        <line x1="54.5" y1="3.5" x2="51.1481509" y2="15.6554611" id="path5972-8-5-0-8" stroke="#000000" stroke-width="0.2"></line>
        <line x1="61.5" y1="3.5" x2="47.1481509" y2="15.6554611" id="path5974-4-0-2-8" stroke="#000000" stroke-width="0.2"></line>
        <polygon id="path6063-4-20-3-7-7" stroke="#000000" stroke-width="0.5" fill="#C44E52" points="27.4888755 22.5155388 28.348197 23.8821633 28.6886896 23.8841388 28.6886896 21.1423302 28.2439328 21.1448702"></polygon>
        <polygon id="path6063-4-20-3-7-7" stroke="#000000" stroke-width="0.5" fill="#009900" transform="translate(34.088783, 22.513234) scale(-1, 1) translate(-34.088783, -22.513234) " points="33.4888755 22.5155388 34.348197 23.8821633 34.6886896 23.8841388 34.6886896 21.1423302 34.2439328 21.1448702"></polygon>
        <polygon id="path6063-4-20-3-7-7" stroke="#000000" stroke-width="0.5" fill="#009900" transform="translate(34.088783, 26.513234) scale(-1, 1) translate(-34.088783, -26.513234) " points="33.4888755 26.5155388 34.348197 27.8821633 34.6886896 27.8841388 34.6886896 25.1423302 34.2439328 25.1448702"></polygon>
        <polygon id="path6063-4-6-2-0-6-0" stroke="#000000" stroke-width="0.5" fill="#3E9ADE" points="41.5027291 26.5155388 42.3620478 27.8821633 42.7025433 27.8841388 42.7025433 25.1423302 42.2577836 25.1448702"></polygon>
        <polygon id="path6063-4-6-2-0-6-0" stroke="#000000" stroke-width="0.5" fill="#3E9ADE" points="41.5027291 30.6448515 42.2189389 32.1401686 42.5027291 32.1423302 42.5027291 29.1423302 42.1320387 29.1451094"></polygon>
        <polygon id="path6063-4-20-3-7-7" stroke="#000000" stroke-width="0.5" fill="#009900" transform="translate(49.088783, 48.513234) scale(-1, 1) translate(-49.088783, -48.513234) " points="48.4888755 48.5155388 49.348197 49.8821633 49.6886896 49.8841388 49.6886896 47.1423302 49.2439328 47.1448702"></polygon>
        <polygon id="path6063-4-6-2-0-6-0" stroke="#000000" stroke-width="0.5" fill="#3E9ADE" points="31.5027291 48.5155388 32.3620478 49.8821633 32.7025433 49.8841388 32.7025433 47.1423302 32.2577836 47.1448702"></polygon>
        <polygon id="path6063-4-6-2-0-6-0" stroke="#000000" stroke-width="0.5" fill="#DEB93E" transform="translate(54.002729, 30.513234) scale(-1, 1) translate(-54.002729, -30.513234) " points="53.5027291 30.5155388 54.2189389 31.8821633 54.5027291 31.8841388 54.5027291 29.1423302 54.1320387 29.1448702"></polygon>
        <polygon id="path6063-4-20-3-7-7" stroke="#000000" stroke-width="0.5" fill="#C44E52" points="31.4888755 43.5155388 32.348197 44.8821633 32.6886896 44.8841388 32.6886896 42.1423302 32.2439328 42.1448702"></polygon>
        <polygon id="path6063-4-6-2-0-6-0" stroke="#000000" stroke-width="0.5" fill="#DEB93E" transform="translate(49.002729, 43.513234) scale(-1, 1) translate(-49.002729, -43.513234) " points="48.5027291 43.5155388 49.2189389 44.8821633 49.5027291 44.8841388 49.5027291 42.1423302 49.1320387 42.1448702"></polygon>
        <rect id="rect4138-6-7-7-3-2" stroke="#000000" stroke-width="0.5" fill="#C44E52" fill-rule="nonzero" stroke-linecap="round" x="22.5485544" y="1.170119" width="6" height="1.86873176"></rect>
        <g id="g6125-3-5-76-2-7" transform="translate(24.370334, 1.095396)" stroke="#000000" stroke-width="0.5">
            <polyline id="path6063-8-1-9-1-9" points="0.0416823874 0.0134866669 0.79770725 0.96564026 0.0327753328 1.92901172"></polyline>
            <polyline id="path6063-9-3-74-1-5-1" points="2.005365 0.0134866669 2.76138987 0.96564026 1.99645795 1.92901172"></polyline>
        </g>
        <rect id="rect4138-6-7-7-2-9-9" stroke="#000000" stroke-width="0.5" fill="#009900" fill-rule="nonzero" stroke-linecap="round" x="28.7643928" y="1.171698" width="4" height="1.86873069"></rect>
        <rect id="rect4138-6-7-7-2-9-9" stroke="#000000" stroke-width="0.5" fill="#3E9ADE" fill-rule="nonzero" stroke-linecap="round" x="32.7643928" y="1.171698" width="5" height="1.86873069"></rect>
        <g id="g6125-3-5-76-1-9-6" transform="translate(29.510117, 1.121586)" stroke="#000000" stroke-width="0.5">
            <polyline id="path6063-8-1-9-7-1-3" points="0.0416823874 0.0134866669 0.79770725 0.96564026 0.0327753328 1.92901172"></polyline>
            <polyline id="path6063-9-3-74-1-7-4-6" points="1.49879006 0.0134866669 2.25481493 0.96564026 1.48988301 1.92901172"></polyline>
        </g>
        <polyline id="path6063-8-1-9-7-1-3" stroke="#000000" stroke-width="0.5" points="33.5517994 1.135073 34.3078242 2.08722659 33.5428923 3.05059805"></polyline>
        <polyline id="path6063-9-3-74-1-7-4-6" stroke="#000000" stroke-width="0.5" points="35.0089071 1.135073 35.7649319 2.08722659 35 3.05059805"></polyline>
        <polyline id="path6063-9-3-74-1-7-4-6" stroke="#000000" stroke-width="0.5" points="36.3089071 1.135073 37.0649319 2.08722659 36.3 3.05059805"></polyline>
        <rect id="rect4138-6-7-7-2-9-9" stroke="#000000" stroke-width="0.5" fill="#3E9ADE" fill-rule="nonzero" stroke-linecap="round" transform="translate(52.764393, 2.106063) scale(-1, 1) translate(-52.764393, -2.106063) " x="50.7643928" y="1.171698" width="4" height="1.86873069"></rect>
        <rect id="rect4138-6-7-7-2-9-9" stroke="#000000" stroke-width="0.5" fill="#009900" fill-rule="nonzero" stroke-linecap="round" transform="translate(48.264393, 2.106063) scale(-1, 1) translate(-48.264393, -2.106063) " x="45.7643928" y="1.171698" width="5" height="1.86873069"></rect>
        <g id="g6125-3-5-76-1-9-6" transform="translate(52.518669, 2.121586) scale(-1, 1) translate(-52.518669, -2.121586) translate(51.018669, 1.121586)" stroke="#000000" stroke-width="0.5">
            <polyline id="path6063-8-1-9-7-1-3" points="0.0416823874 0.0134866669 0.79770725 0.96564026 0.0327753328 1.92901172"></polyline>
            <polyline id="path6063-9-3-74-1-7-4-6" points="1.49879006 0.0134866669 2.25481493 0.96564026 1.48988301 1.92901172"></polyline>
        </g>
        <polyline id="path6063-8-1-9-7-1-3" stroke="#000000" stroke-width="0.5" transform="translate(53.603427, 2.092836) scale(-1, 1) translate(-53.603427, -2.092836) " points="53.2298684 1.135073 53.9858932 2.08722659 53.2209613 3.05059805"></polyline>
        <polyline id="path6063-9-3-74-1-7-4-6" stroke="#000000" stroke-width="0.5" transform="translate(52.146320, 2.092836) scale(-1, 1) translate(-52.146320, -2.092836) " points="51.7727607 1.135073 52.5287855 2.08722659 51.7638536 3.05059805"></polyline>
        <g id="g6125-3-5-76-1-9-6" transform="translate(47.200000, 2.121586) scale(-1, 1) translate(-47.200000, -2.121586) translate(45.700000, 1.121586)" stroke="#000000" stroke-width="0.5">
            <polyline id="path6063-8-1-9-7-1-3" points="0.0416823874 0.0134866669 0.79770725 0.96564026 0.0327753328 1.92901172"></polyline>
            <polyline id="path6063-9-3-74-1-7-4-6" points="1.49879006 0.0134866669 2.25481493 0.96564026 1.48988301 1.92901172"></polyline>
        </g>
        <polyline id="path6063-8-1-9-7-1-3" stroke="#000000" stroke-width="0.5" transform="translate(49.603427, 2.092836) scale(-1, 1) translate(-49.603427, -2.092836) " points="49.2298684 1.135073 49.9858932 2.08722659 49.2209613 3.05059805"></polyline>
        <rect id="rect4138-7-1-8-1-4" stroke="#000000" stroke-width="0.5" fill="#DEB93E" fill-rule="nonzero" stroke-linecap="round" x="54.673372" y="1.170119" width="7" height="1.86873123"></rect>
        <polyline id="path6063-8-7-0-0-5-6" stroke="#000000" stroke-width="0.5" transform="translate(60.555283, 2.106332) scale(-1, 1) translate(-60.555283, -2.106332) " points="60.1817242 1.148569 60.9377491 2.10072259 60.1728172 3.06409405"></polyline>
        <polyline id="path6063-9-3-6-4-3-8-7" stroke="#000000" stroke-width="0.5" transform="translate(59.382466, 2.106332) scale(-1, 1) translate(-59.382466, -2.106332) " points="59.0089071 1.148569 59.7649319 2.10072259 59 3.06409405"></polyline>
        <polyline id="path6063-8-7-0-0-5-6" stroke="#000000" stroke-width="0.5" transform="translate(58.382466, 2.106332) scale(-1, 1) translate(-58.382466, -2.106332) " points="58.0089071 1.148569 58.7649319 2.10072259 58 3.06409405"></polyline>
        <polyline id="path6063-9-3-6-4-3-8-7" stroke="#000000" stroke-width="0.5" transform="translate(57.382466, 2.106332) scale(-1, 1) translate(-57.382466, -2.106332) " points="57.0089071 1.148569 57.7649319 2.10072259 57 3.06409405"></polyline>
        <polyline id="path6063-9-3-6-4-3-8-7" stroke="#000000" stroke-width="0.5" transform="translate(56.382466, 2.106332) scale(-1, 1) translate(-56.382466, -2.106332) " points="56.0089071 1.148569 56.7649319 2.10072259 56 3.06409405"></polyline>
        <path d="M22.7943067,7.65151493 C22.4577793,7.62851382 21.8757101,8.04118762 21.879549,9.10479287 C21.8834345,10.1683981 22.4654981,10.5805329 22.8020227,10.5575205 L53.6711828,10.5575205 L54.0223068,9.93520071 L56.8643721,9.93520071 L57.501579,10.5575205 L61.6709693,10.5575205 C62.0361931,10.4639892 62.4793694,9.86298287 62.4722758,9.10127638 C62.4650213,8.33956989 62.0262222,7.74446764 61.6632533,7.65151493 L57.4938603,7.65151493 L56.8566561,8.27438784 L54.0145908,8.27438784 L53.6634669,7.65151493 L22.7943067,7.65151493 Z" id="path5671-5-9-0-1" stroke="#000000" stroke-width="0.5" fill="#FFFFFF"></path>
        <path d="M22.8589441,11.5239312 C22.5224166,11.5009301 21.9403474,11.9136039 21.9441863,12.9772091 C21.9480718,14.0408144 22.5301354,14.4529491 22.86666,14.4299367 L53.7358202,14.4299367 L54.0869442,13.807617 L56.9290094,13.807617 L57.5662164,14.4299367 L61.7356066,14.4299367 C62.1008304,14.3364055 62.5440068,13.7353991 62.5369132,12.9736926 C62.5296586,12.2119862 62.0908595,11.6168839 61.7278907,11.5239312 L57.5584976,11.5239312 L56.9212935,12.1468041 L54.0792282,12.1468041 L53.7281042,11.5239312 L22.8589441,11.5239312 Z" id="path5671-5-9-9-4-0" stroke="#000000" stroke-width="0.5" fill="#FFFFFF"></path>
        <path d="M22.8589441,15.5239312 C22.5224166,15.5009301 21.9403474,15.9136039 21.9441863,16.9772091 C21.9480718,18.0408144 22.5301354,18.4529491 22.86666,18.4299367 L53.7358202,18.4299367 L54.0869442,17.807617 L56.9290094,17.807617 L57.5662164,18.4299367 L61.7356066,18.4299367 C62.1008304,18.3364055 62.5440068,17.7353991 62.5369132,16.9736926 C62.5296586,16.2119862 62.0908595,15.6168839 61.7278907,15.5239312 L57.5584976,15.5239312 L56.9212935,16.1468041 L54.0792282,16.1468041 L53.7281042,15.5239312 L22.8589441,15.5239312 Z" id="path5671-5-9-9-4-0" stroke="#000000" stroke-width="0.5" fill="#FFFFFF"></path>
        <g id="g7464-3-6-2-0" transform="translate(42.794454, 9.491111) scale(-1, 1) translate(-42.794454, -9.491111) translate(40.794454, 7.491111)" stroke="#000000" stroke-width="0.5">
            <rect id="rect4138-6-1-7-0-9-6" fill="#3E9ADE" fill-rule="nonzero" stroke-linecap="round" x="0.572672253" y="0.226872518" width="3" height="2.74181073"></rect>
            <g id="g6125-1-83-6-4" transform="translate(0.489609, 0.282222)">
                <polyline id="path6063-9-9-0-21-4-7" points="0.442323196 0.0184054044 1.1925407 1.31782002 0.43348456 2.63254377"></polyline>
                <polyline id="path6063-9-9-1-9-0-22-3" points="1.14280355 0.0184054044 1.89302105 1.31782002 1.13396491 2.63254377"></polyline>
                <polyline id="path6063-9-9-1-4-7-5-2-4" points="1.84328418 0.0184054044 2.59350169 1.31782002 1.83444555 2.63254377"></polyline>
            </g>
        </g>
        <g id="g7473-9-8-0-7" transform="translate(27.634365, 13.342440) scale(-1, 1) translate(-27.634365, -13.342440) translate(26.134365, 11.342440)" stroke="#000000" stroke-width="0.5">
            <rect id="rect4138-6-1-5-9-5-5-2" fill="#C44E52" fill-rule="nonzero" stroke-linecap="round" x="0.163211933" y="0.264288411" width="2.51439406" height="2.74181155"></rect>
            <g id="g6125-9-3-5-52-1" transform="translate(0.611099, 0.306300)">
                <polyline id="path6063-9-9-1-5-1-8-9-7" points="0.167247993 0.0184054044 0.917465498 1.31782002 0.158409358 2.63254377"></polyline>
                <polyline id="path6063-9-9-1-4-8-2-2-02-9" points="0.867728629 0.0184054044 1.61794613 1.31782002 0.858889993 2.63254377"></polyline>
            </g>
        </g>
        <g id="g7473-9-8-8-8-5" transform="translate(49.006496, 16.706077) scale(-1, 1) rotate(-180.000000) translate(-49.006496, -16.706077) translate(46.506496, 14.706077)" stroke="#000000" stroke-width="0.5">
            <rect id="rect4138-6-1-5-9-5-7-3-68" fill="#DEB93E" fill-rule="nonzero" stroke-linecap="round" x="0.677605996" y="0.264288411" width="4" height="2.74181155"></rect>
            <g id="g6125-9-3-5-5-8-9" transform="translate(2.611099, 0.306300)">
                <polyline id="path6063-9-9-1-5-1-8-2-0-5" points="0.167247993 0.0184054044 0.917465498 1.31782002 0.158409358 2.63254377"></polyline>
                <polyline id="path6063-9-9-1-4-8-2-2-4-4-5" points="0.867728629 0.0184054044 1.61794613 1.31782002 0.858889993 2.63254377"></polyline>
            </g>
            <g id="g6125-9-3-5-5-8-9" transform="translate(1.141655, 0.306300)">
                <polyline id="path6063-9-9-1-5-1-8-2-0-5" points="0.167247993 0.0184054044 0.917465498 1.31782002 0.158409358 2.63254377"></polyline>
                <polyline id="path6063-9-9-1-4-8-2-2-4-4-5" points="0.867728629 0.0184054044 1.61794613 1.31782002 0.858889993 2.63254377"></polyline>
            </g>
        </g>
        <g id="g7473-9-8-8-8-5-2" transform="translate(33.939255, 8.741160) scale(-1, 1) rotate(-180.000000) translate(-33.939255, -8.741160) translate(32.439255, 6.741160)" stroke="#000000" stroke-width="0.5">
            <rect id="rect4138-6-1-5-9-5-7-3-68-1" fill="#009900" fill-rule="nonzero" stroke-linecap="round" x="0.163211933" y="0.264288411" width="2.51439406" height="2.74181155"></rect>
            <g id="g6125-9-3-5-5-8-9-5" transform="translate(0.611099, 0.306300)">
                <polyline id="path6063-9-9-1-5-1-8-2-0-5-9" points="0.167247993 0.0184054044 0.917465498 1.31782002 0.158409358 2.63254377"></polyline>
                <polyline id="path6063-9-9-1-4-8-2-2-4-4-5-9" points="0.867728629 0.0184054044 1.61794613 1.31782002 0.858889993 2.63254377"></polyline>
            </g>
        </g>
        <line x1="28.5" y1="3.5" x2="32.5759105" y2="7.51935027" id="path5953-8-5-8-56-2-1" stroke="#000000" stroke-width="0.2"></line>
        <line x1="33.5" y1="3.5" x2="35.122026" y2="7.66878129" id="path5953-8-5-8-56-2-1-6" stroke="#000000" stroke-width="0.2"></line>
        <line x1="50.5" y1="3.5" x2="41.5" y2="7.5" id="path5953-8-5-8-56-2-1" stroke="#000000" stroke-width="0.2"></line>
        <line x1="54.5" y1="3.5" x2="44.5" y2="7.5" id="path5953-8-5-8-56-2-1-6" stroke="#000000" stroke-width="0.2"></line>
        <text id="uu" fill="#000000" fill-rule="nonzero" font-family="Helvetica" font-size="2.82222222" font-weight="normal">
            <tspan x="57.4304145" y="23.2299283">uu</tspan>
        </text>
        <text id="all" fill="#000000" fill-rule="nonzero" font-family="Helvetica" font-size="2.82222222" font-weight="normal">
            <tspan x="12.5881999" y="27.2299283">all</tspan>
        </text>
        <text id="mask" fill="#000000" fill-rule="nonzero" font-family="Helvetica" font-size="2.82222222" font-weight="normal">
            <tspan x="9.62862956" y="39.2299283">mask</tspan>
        </text>
        <text id="5any,-5unique" fill="#000000" fill-rule="nonzero" font-family="Helvetica" font-size="2.82222222" font-weight="normal">
            <tspan x="4.23774414" y="44.2299283">5any, 5unique</tspan>
        </text>
        <text id="--walks-policy" fill="#000000" fill-rule="nonzero" font-family="Helvetica" font-size="2.82222222" font-weight="normal">
            <tspan x="0.454096137" y="18.2299283">--walks-policy</tspan>
        </text>
        <text id="chimera_index1" fill="#000000" fill-rule="nonzero" font-family="Helvetica" font-size="2.82222222" font-weight="normal">
            <tspan x="64.0381619" y="19.2299283">chimera_index1</tspan>
        </text>
        <text id="chimera_index2" fill="#000000" fill-rule="nonzero" font-family="Helvetica" font-size="2.82222222" font-weight="normal">
            <tspan x="85.0381619" y="19.2299283">chimera_index2</tspan>
        </text>
        <text id="uf1r0" fill="#000000" fill-rule="nonzero" font-family="Helvetica" font-size="2.82222222" font-weight="normal">
            <tspan x="69.7836589" y="23.2299283">uf1r0</tspan>
        </text>
        <text id="uf2r3" fill="#000000" fill-rule="nonzero" font-family="Helvetica" font-size="2.82222222" font-weight="normal">
            <tspan x="90.7836589" y="23.2299283">uf2r3</tspan>
        </text>
        <text id="uf2r3" fill="#000000" fill-rule="nonzero" font-family="Helvetica" font-size="2.82222222" font-weight="normal">
            <tspan x="69.7836589" y="27.2299283">uf2r3</tspan>
        </text>
        <text id="uf3r2" fill="#000000" fill-rule="nonzero" font-family="Helvetica" font-size="2.82222222" font-weight="normal">
            <tspan x="90.7836589" y="27.2299283">uf3r2</tspan>
        </text>
        <text id="uf3r2" fill="#000000" fill-rule="nonzero" font-family="Helvetica" font-size="2.82222222" font-weight="normal">
            <tspan x="69.7836589" y="31.2299283">uf3r2</tspan>
        </text>
        <text id="uf0r1" fill="#000000" fill-rule="nonzero" font-family="Helvetica" font-size="2.82222222" font-weight="normal">
            <tspan x="90.7836589" y="31.2299283">uf0r1</tspan>
        </text>
        <text id="uu" fill="#000000" fill-rule="nonzero" font-family="Helvetica" font-size="2.82222222" font-weight="normal">
            <tspan x="57.4304145" y="27.2299283">uu</tspan>
        </text>
        <text id="uu" fill="#000000" fill-rule="nonzero" font-family="Helvetica" font-size="2.82222222" font-weight="normal">
            <tspan x="57.9304145" y="31.2299283">uu</tspan>
        </text>
        <text id="UU" fill="#000000" fill-rule="nonzero" font-family="Helvetica" font-size="2.82222222" font-weight="normal">
            <tspan x="58.4618815" y="44.2299283">UU</tspan>
        </text>
        <text id="3any,-3unique" fill="#000000" fill-rule="nonzero" font-family="Helvetica" font-size="2.82222222" font-weight="normal">
            <tspan x="4.23774414" y="49.2299283">3any, 3unique</tspan>
        </text>
        <text id="UU" fill="#000000" fill-rule="nonzero" font-family="Helvetica" font-size="2.82222222" font-weight="normal">
            <tspan x="58.4618815" y="49.2299283">UU</tspan>
        </text>
        <text id="WW" fill="#000000" fill-rule="nonzero" font-family="Helvetica" font-size="2.82222222" font-weight="normal">
            <tspan x="57.8362522" y="39.2299283">WW</tspan>
        </text>
        <text id="!" fill="#000000" fill-rule="nonzero" font-family="Helvetica" font-size="2.82222222" font-weight="normal">
            <tspan x="32.1079481" y="39.2299283">!</tspan>
        </text>
        <text id="!" fill="#000000" fill-rule="nonzero" font-family="Helvetica" font-size="2.82222222" font-weight="normal">
            <tspan x="48.1079481" y="39.2299283">!</tspan>
        </text>
        <text id="{" font-family="Helvetica-Light, Helvetica" font-size="15" font-weight="300" fill="#000000">
            <tspan x="20.6506509" y="31.1554611">{</tspan>
        </text>
    </g>
</svg>