<?xml version="1.0" encoding="UTF-8"?>
<svg width="79px" height="51px" viewBox="0 0 79 51" version="1.1" xmlns="http://www.w3.org/2000/svg" xmlns:xlink="http://www.w3.org/1999/xlink">
    <title>Slice 1</title>
    <g id="Page-1" stroke="none" stroke-width="1" fill="none" fill-rule="evenodd">
        <line x1="45.5987918" y1="2.10448211" x2="37.8095488" y2="2.10448211" id="path4191-9-2-29-3" stroke="#000000" stroke-width="0.5" stroke-dasharray="1.693333333331004,0.5644444444436679"></line>
        <line x1="22.4999999" y1="3.5" x2="29.1481508" y2="11.6554611" id="path5953-8-5-9-9" stroke="#000000" stroke-width="0.2"></line>
        <line x1="28.4999999" y1="3.5" x2="26.1481508" y2="11.6554611" id="path5955-8-8-6-1" stroke="#000000" stroke-width="0.2"></line>
        <line x1="45.4999999" y1="3.5" x2="32.4999999" y2="7.5" id="path5972-8-5-0-8" stroke="#000000" stroke-width="0.2"></line>
        <line x1="33.4999999" y1="3.5" x2="41.2348404" y2="7.57365264" id="path5972-8-5-0-8" stroke="#000000" stroke-width="0.2"></line>
        <line x1="50.4999999" y1="3.5" x2="35.4999999" y2="7.5" id="path5974-4-0-2-8" stroke="#000000" stroke-width="0.2"></line>
        <line x1="38.4999999" y1="3.5" x2="44.4999999" y2="7.5" id="path5974-4-0-2-8" stroke="#000000" stroke-width="0.2"></line>
        <line x1="54.4999999" y1="3.5" x2="51.1481508" y2="15.6554611" id="path5972-8-5-0-8" stroke="#000000" stroke-width="0.2"></line>
        <line x1="61.4999999" y1="3.5" x2="47.1481508" y2="15.6554611" id="path5974-4-0-2-8" stroke="#000000" stroke-width="0.2"></line>
        <polygon id="path6063-4-20-3-7-7" stroke="#000000" stroke-width="0.5" fill="#C44E52" fill-rule="nonzero" points="27.4888754 22.5155388 28.3481969 23.8821633 28.6886895 23.8841388 28.6886895 21.1423302 28.2439327 21.1448702"></polygon>
        <polygon id="path6063-4-20-3-7-7" stroke="#000000" stroke-width="0.5" fill="#009900" fill-rule="nonzero" transform="translate(34.088783, 22.513234) scale(-1, 1) translate(-34.088783, -22.513234) " points="33.4888756 22.5155388 34.3481971 23.8821633 34.6886897 23.8841388 34.6886897 21.1423302 34.2439329 21.1448702"></polygon>
        <polygon id="path6063-4-20-3-7-7" stroke="#000000" stroke-width="0.5" fill="#009900" fill-rule="nonzero" transform="translate(34.088783, 26.513234) scale(-1, 1) translate(-34.088783, -26.513234) " points="33.4888756 26.5155388 34.3481971 27.8821633 34.6886897 27.8841388 34.6886897 25.1423302 34.2439329 25.1448702"></polygon>
        <polygon id="path6063-4-6-2-0-6-0" stroke="#000000" stroke-width="0.5" fill="#3E9ADE" fill-rule="nonzero" points="41.502729 26.5155388 42.3620477 27.8821633 42.7025432 27.8841388 42.7025432 25.1423302 42.2577835 25.1448702"></polygon>
        <polygon id="path6063-4-6-2-0-6-0" stroke="#000000" stroke-width="0.5" fill="#3E9ADE" fill-rule="nonzero" points="41.502729 30.6448515 42.2189388 32.1401686 42.502729 32.1423302 42.502729 29.1423302 42.1320386 29.1451094"></polygon>
        <polygon id="path6063-4-20-3-7-7" stroke="#000000" stroke-width="0.5" fill="#009900" fill-rule="nonzero" transform="translate(49.088783, 48.513234) scale(-1, 1) translate(-49.088783, -48.513234) " points="48.4888756 48.5155388 49.3481971 49.8821633 49.6886897 49.8841388 49.6886897 47.1423302 49.2439329 47.1448702"></polygon>
        <polygon id="path6063-4-6-2-0-6-0" stroke="#000000" stroke-width="0.5" fill="#3E9ADE" fill-rule="nonzero" points="31.502729 48.5155388 32.3620477 49.8821633 32.7025432 49.8841388 32.7025432 47.1423302 32.2577835 47.1448702"></polygon>
        <polygon id="path6063-4-6-2-0-6-0" stroke="#000000" stroke-width="0.5" fill="#DEB93E" fill-rule="nonzero" transform="translate(54.002729, 30.513234) scale(-1, 1) translate(-54.002729, -30.513234) " points="53.5027292 30.5155388 54.218939 31.8821633 54.5027292 31.8841388 54.5027292 29.1423302 54.1320388 29.1448702"></polygon>
        <polygon id="path6063-4-20-3-7-7" stroke="#000000" stroke-width="0.5" fill="#C44E52" fill-rule="nonzero" points="31.4888754 43.5155388 32.3481969 44.8821633 32.6886895 44.8841388 32.6886895 42.1423302 32.2439327 42.1448702"></polygon>
        <polygon id="path6063-4-6-2-0-6-0" stroke="#000000" stroke-width="0.5" fill="#DEB93E" fill-rule="nonzero" transform="translate(49.002729, 43.513234) scale(-1, 1) translate(-49.002729, -43.513234) " points="48.5027292 43.5155388 49.218939 44.8821633 49.5027292 44.8841388 49.5027292 42.1423302 49.1320388 42.1448702"></polygon>
        <rect id="rect4138-6-7-7-3-2" stroke="#000000" stroke-width="0.5" fill="#C44E52" fill-rule="nonzero" stroke-linecap="round" x="22.5485543" y="1.170119" width="6" height="1.86873176"></rect>
        <g id="g6125-3-5-76-2-7" transform="translate(24.285575, 1.108883)" stroke="#000000" stroke-width="0.5">
            <polyline id="path6063-8-1-9-1-9" points="0.1264411 0 0.88246596 0.952153593 0.11753404 1.91552505"></polyline>
            <polyline id="path6063-9-3-74-1-5-1" points="2.09012371 0 2.84614858 0.952153593 2.08121666 1.91552505"></polyline>
        </g>
        <rect id="rect4138-6-7-7-2-9-9" stroke="#000000" stroke-width="0.5" fill="#009900" fill-rule="nonzero" stroke-linecap="round" x="28.7643927" y="1.171698" width="4" height="1.86873069"></rect>
        <rect id="rect4138-6-7-7-2-9-9" stroke="#000000" stroke-width="0.5" fill="#3E9ADE" fill-rule="nonzero" stroke-linecap="round" x="32.7643927" y="1.171698" width="5" height="1.86873069"></rect>
        <g id="g6125-3-5-76-1-9-6" transform="translate(29.425358, 1.135073)" stroke="#000000" stroke-width="0.5">
            <polyline id="path6063-8-1-9-7-1-3" points="0.1264411 0 0.88246596 0.952153593 0.11753404 1.91552505"></polyline>
            <polyline id="path6063-9-3-74-1-7-4-6" points="1.58354877 0 2.33957364 0.952153593 1.57464172 1.91552505"></polyline>
        </g>
        <polyline id="path6063-8-1-9-7-1-3" stroke="#000000" stroke-width="0.5" points="33.5517993 1.135073 34.3078241 2.08722659 33.5428922 3.05059805"></polyline>
        <polyline id="path6063-9-3-74-1-7-4-6" stroke="#000000" stroke-width="0.5" points="35.008907 1.135073 35.7649318 2.08722659 34.9999999 3.05059805"></polyline>
        <polyline id="path6063-9-3-74-1-7-4-6" stroke="#000000" stroke-width="0.5" points="36.308907 1.135073 37.0649318 2.08722659 36.2999999 3.05059805"></polyline>
        <rect id="rect4138-6-7-7-2-9-9" stroke="#000000" stroke-width="0.5" fill="#3E9ADE" fill-rule="nonzero" stroke-linecap="round" transform="translate(52.764393, 2.106063) scale(-1, 1) translate(-52.764393, -2.106063) " x="50.7643929" y="1.171698" width="4" height="1.86873069"></rect>
        <rect id="rect4138-6-7-7-2-9-9" stroke="#000000" stroke-width="0.5" fill="#009900" fill-rule="nonzero" stroke-linecap="round" transform="translate(48.264393, 2.106063) scale(-1, 1) translate(-48.264393, -2.106063) " x="45.7643929" y="1.171698" width="5" height="1.86873069"></rect>
        <g id="g6125-3-5-76-1-9-6" transform="translate(52.874874, 2.092835) scale(-1, 1) translate(-52.874874, -2.092835) translate(51.646320, 1.135073)" stroke="#000000" stroke-width="0.5">
            <polyline id="path6063-8-1-9-7-1-3" points="0.1264411 0 0.88246596 0.952153593 0.11753404 1.91552505"></polyline>
            <polyline id="path6063-9-3-74-1-7-4-6" points="1.58354877 0 2.33957364 0.952153593 1.57464172 1.91552505"></polyline>
        </g>
        <polyline id="path6063-8-1-9-7-1-3" stroke="#000000" stroke-width="0.5" transform="translate(53.603427, 2.092836) scale(-1, 1) translate(-53.603427, -2.092836) " points="53.2298685 1.135073 53.9858933 2.08722659 53.2209614 3.05059805"></polyline>
        <polyline id="path6063-9-3-74-1-7-4-6" stroke="#000000" stroke-width="0.5" transform="translate(52.146320, 2.092836) scale(-1, 1) translate(-52.146320, -2.092836) " points="51.7727608 1.135073 52.5287856 2.08722659 51.7638537 3.05059805"></polyline>
        <g id="g6125-3-5-76-1-9-6" transform="translate(47.556205, 2.092835) scale(-1, 1) translate(-47.556205, -2.092835) translate(46.327651, 1.135073)" stroke="#000000" stroke-width="0.5">
            <polyline id="path6063-8-1-9-7-1-3" points="0.1264411 0 0.88246596 0.952153593 0.11753404 1.91552505"></polyline>
            <polyline id="path6063-9-3-74-1-7-4-6" points="1.58354877 0 2.33957364 0.952153593 1.57464172 1.91552505"></polyline>
        </g>
        <polyline id="path6063-8-1-9-7-1-3" stroke="#000000" stroke-width="0.5" transform="translate(49.603427, 2.092836) scale(-1, 1) translate(-49.603427, -2.092836) " points="49.2298685 1.135073 49.9858933 2.08722659 49.2209614 3.05059805"></polyline>
        <rect id="rect4138-7-1-8-1-4" stroke="#000000" stroke-width="0.5" fill="#DEB93E" fill-rule="nonzero" stroke-linecap="round" x="54.6733719" y="1.170119" width="7" height="1.86873123"></rect>
        <polyline id="path6063-8-7-0-0-5-6" stroke="#000000" stroke-width="0.5" transform="translate(60.555283, 2.106332) scale(-1, 1) translate(-60.555283, -2.106332) " points="60.1817243 1.148569 60.9377492 2.10072259 60.1728173 3.06409405"></polyline>
        <polyline id="path6063-9-3-6-4-3-8-7" stroke="#000000" stroke-width="0.5" transform="translate(59.382466, 2.106332) scale(-1, 1) translate(-59.382466, -2.106332) " points="59.0089072 1.148569 59.764932 2.10072259 59.0000001 3.06409405"></polyline>
        <polyline id="path6063-8-7-0-0-5-6" stroke="#000000" stroke-width="0.5" transform="translate(58.382466, 2.106332) scale(-1, 1) translate(-58.382466, -2.106332) " points="58.0089072 1.148569 58.764932 2.10072259 58.0000001 3.06409405"></polyline>
        <polyline id="path6063-9-3-6-4-3-8-7" stroke="#000000" stroke-width="0.5" transform="translate(57.382466, 2.106332) scale(-1, 1) translate(-57.382466, -2.106332) " points="57.0089072 1.148569 57.764932 2.10072259 57.0000001 3.06409405"></polyline>
        <polyline id="path6063-9-3-6-4-3-8-7" stroke="#000000" stroke-width="0.5" transform="translate(56.382466, 2.106332) scale(-1, 1) translate(-56.382466, -2.106332) " points="56.0089072 1.148569 56.764932 2.10072259 56.0000001 3.06409405"></polyline>
        <path d="M22.7943066,7.65151493 C22.4577792,7.62851382 21.87571,8.04118762 21.8795113,9.10479287 C21.8834344,10.1683981 22.465498,10.5805329 22.8020226,10.5575205 L53.6711827,10.5575205 L54.0223067,9.93520071 L56.864372,9.93520071 L57.5015789,10.5575205 L61.6709692,10.5575205 C62.036193,10.4639892 62.4793693,9.86298287 62.4724418,9.10127638 C62.4650212,8.33956989 62.0262221,7.74446764 61.6632532,7.65151493 L57.4938602,7.65151493 L56.856656,8.27438784 L54.0145907,8.27438784 L53.6634668,7.65151493 L22.7943066,7.65151493 Z" id="path5671-5-9-0-1" stroke="#000000" stroke-width="0.5" fill="#FFFFFF" fill-rule="nonzero"></path>
        <path d="M22.858944,11.5239312 C22.5224165,11.5009301 21.9403473,11.9136039 21.9441486,12.9772091 C21.9480717,14.0408144 22.5301353,14.4529491 22.8666599,14.4299367 L53.7358201,14.4299367 L54.0869441,13.807617 L56.9290093,13.807617 L57.5662163,14.4299367 L61.7356065,14.4299367 C62.1008303,14.3364055 62.5440067,13.7353991 62.5370792,12.9736926 C62.5296585,12.2119862 62.0908594,11.6168839 61.7278906,11.5239312 L57.5584975,11.5239312 L56.9212934,12.1468041 L54.0792281,12.1468041 L53.7281041,11.5239312 L22.858944,11.5239312 Z" id="path5671-5-9-9-4-0" stroke="#000000" stroke-width="0.5" fill="#FFFFFF" fill-rule="nonzero"></path>
        <path d="M22.858944,15.5239312 C22.5224165,15.5009301 21.9403473,15.9136039 21.9441486,16.9772091 C21.9480717,18.0408144 22.5301353,18.4529491 22.8666599,18.4299367 L53.7358201,18.4299367 L54.0869441,17.807617 L56.9290093,17.807617 L57.5662163,18.4299367 L61.7356065,18.4299367 C62.1008303,18.3364055 62.5440067,17.7353991 62.5370792,16.9736926 C62.5296585,16.2119862 62.0908594,15.6168839 61.7278906,15.5239312 L57.5584975,15.5239312 L56.9212934,16.1468041 L54.0792281,16.1468041 L53.7281041,15.5239312 L22.858944,15.5239312 Z" id="path5671-5-9-9-4-0" stroke="#000000" stroke-width="0.5" fill="#FFFFFF" fill-rule="nonzero"></path>
        <g id="g7464-3-6-2-0" transform="translate(42.721782, 9.088889) scale(-1, 1) translate(-42.721782, -9.088889) translate(41.221782, 7.717984)" stroke="#000000" stroke-width="0.5">
            <rect id="rect4138-6-1-7-0-9-6" fill="#3E9ADE" fill-rule="nonzero" stroke-linecap="round" x="1.11022302e-16" y="2.77555756e-17" width="3" height="2.74181073"></rect>
            <g id="g6125-1-83-6-4" transform="translate(0.229949, 0.073755)">
                <polyline id="path6063-9-9-0-21-4-7" points="0.129310566 6.24500451e-17 0.87952807 1.29941462 0.12047193 2.61413837"></polyline>
                <polyline id="path6063-9-9-1-9-0-22-3" points="0.82979092 6.24500451e-17 1.58000842 1.29941462 0.82095228 2.61413837"></polyline>
                <polyline id="path6063-9-9-1-4-7-5-2-4" points="1.53027155 6.24500451e-17 2.28048906 1.29941462 1.52143292 2.61413837"></polyline>
            </g>
        </g>
        <g id="g7473-9-8-0-7" transform="translate(27.713956, 12.977634) scale(-1, 1) translate(-27.713956, -12.977634) translate(26.456759, 11.606728)" stroke="#000000" stroke-width="0.5">
            <rect id="rect4138-6-1-5-9-5-5-2" fill="#C44E52" fill-rule="nonzero" stroke-linecap="round" x="8.32667268e-17" y="-1.11022302e-16" width="2.51439406" height="2.74181155"></rect>
            <g id="g6125-9-3-5-52-1" transform="translate(0.485824, 0.060417)">
                <polyline id="path6063-9-9-1-5-1-8-9-7" points="0.129310565 6.24500451e-17 0.87952807 1.29941462 0.12047193 2.61413837"></polyline>
                <polyline id="path6063-9-9-1-4-8-2-2-02-9" points="0.829791201 6.24500451e-17 1.5800087 1.29941462 0.820952565 2.61413837"></polyline>
            </g>
        </g>
        <g id="g7473-9-8-8-8-5" transform="translate(49.184102, 17.070883) scale(-1, 1) rotate(-180.000000) translate(-49.184102, -17.070883) translate(47.184102, 15.699977)" stroke="#000000" stroke-width="0.5">
            <rect id="rect4138-6-1-5-9-5-7-3-68" fill="#DEB93E" fill-rule="nonzero" stroke-linecap="round" x="0" y="-1.11022302e-16" width="4" height="2.74181155"></rect>
            <g id="g6125-9-3-5-5-8-9" transform="translate(1.971430, 0.060417)">
                <polyline id="path6063-9-9-1-5-1-8-2-0-5" points="0.129310565 6.24500451e-17 0.87952807 1.29941462 0.12047193 2.61413837"></polyline>
                <polyline id="path6063-9-9-1-4-8-2-2-4-4-5" points="0.829791201 6.24500451e-17 1.5800087 1.29941462 0.820952565 2.61413837"></polyline>
            </g>
            <g id="g6125-9-3-5-5-8-9" transform="translate(0.501986, 0.060417)">
                <polyline id="path6063-9-9-1-5-1-8-2-0-5" points="0.129310565 6.24500451e-17 0.87952807 1.29941462 0.12047193 2.61413837"></polyline>
                <polyline id="path6063-9-9-1-4-8-2-2-4-4-5" points="0.829791201 6.24500451e-17 1.5800087 1.29941462 0.820952565 2.61413837"></polyline>
            </g>
        </g>
        <g id="g7473-9-8-8-8-5-2" transform="translate(33.859664, 9.105966) scale(-1, 1) rotate(-180.000000) translate(-33.859664, -9.105966) translate(32.602467, 7.735060)" stroke="#000000" stroke-width="0.5">
            <rect id="rect4138-6-1-5-9-5-7-3-68-1" fill="#009900" fill-rule="nonzero" stroke-linecap="round" x="8.32667268e-17" y="-1.11022302e-16" width="2.51439406" height="2.74181155"></rect>
            <g id="g6125-9-3-5-5-8-9-5" transform="translate(0.485824, 0.060417)">
                <polyline id="path6063-9-9-1-5-1-8-2-0-5-9" points="0.129310565 6.24500451e-17 0.87952807 1.29941462 0.12047193 2.61413837"></polyline>
                <polyline id="path6063-9-9-1-4-8-2-2-4-4-5-9" points="0.829791201 6.24500451e-17 1.5800087 1.29941462 0.820952565 2.61413837"></polyline>
            </g>
        </g>
        <line x1="28.4999999" y1="3.5" x2="32.5759104" y2="7.51935027" id="path5953-8-5-8-56-2-1" stroke="#000000" stroke-width="0.2"></line>
        <line x1="33.4999999" y1="3.5" x2="35.1220259" y2="7.66878129" id="path5953-8-5-8-56-2-1-6" stroke="#000000" stroke-width="0.2"></line>
        <line x1="50.4999999" y1="3.5" x2="41.4999999" y2="7.5" id="path5953-8-5-8-56-2-1" stroke="#000000" stroke-width="0.2"></line>
        <line x1="54.4999999" y1="3.5" x2="44.4999999" y2="7.5" id="path5953-8-5-8-56-2-1-6" stroke="#000000" stroke-width="0.2"></line>
        <g id="all" transform="translate(12.588200, 24.229928)" fill="#000000" fill-rule="nonzero" font-family="Helvetica" font-size="2.82222222" font-weight="normal">
            <text>
                <tspan x="0" y="3">all</tspan>
            </text>
        </g>
        <g id="mask" transform="translate(9.628629, 36.229928)" fill="#000000" fill-rule="nonzero" font-family="Helvetica" font-size="2.82222222" font-weight="normal">
            <text>
                <tspan x="0" y="3">mask</tspan>
            </text>
        </g>
        <g id="5any,-5unique" transform="translate(4.237744, 41.229928)" fill="#000000" fill-rule="nonzero" font-family="Helvetica" font-size="2.82222222" font-weight="normal">
            <text>
                <tspan x="4.4408921e-16" y="3">5any, 5unique</tspan>
            </text>
        </g>
        <g id="--walks-policy" transform="translate(0.454096, 15.229928)" fill="#000000" fill-rule="nonzero" font-family="Helvetica" font-size="2.82222222" font-weight="normal">
            <text>
                <tspan x="0" y="3">--walks-policy</tspan>
            </text>
        </g>
        <g id="junction_index" transform="translate(64.038162, 16.229928)" fill="#000000" fill-rule="nonzero" font-family="Helvetica" font-size="2.82222222" font-weight="normal">
            <text id="pair_index">
                <tspan x="0" y="3">pair_index</tspan>
            </text>
        </g>
        <g id="1f" transform="translate(69.783659, 20.229928)" fill="#000000" fill-rule="nonzero" font-family="Helvetica" font-size="2.82222222" font-weight="normal">
            <text id="1l">
                <tspan x="0" y="3">1l</tspan>
            </text>
        </g>
        <g id="2b" transform="translate(69.783659, 24.229928)" fill="#000000" fill-rule="nonzero" font-family="Helvetica" font-size="2.82222222" font-weight="normal">
            <text>
                <tspan x="0" y="3">2b</tspan>
            </text>
        </g>
        <g id="3r" transform="translate(69.783659, 28.229928)" fill="#000000" fill-rule="nonzero" font-family="Helvetica" font-size="2.82222222" font-weight="normal">
            <text>
                <tspan x="0" y="3">3r</tspan>
            </text>
        </g>
        <g id="UU" transform="translate(58.461881, 41.229928)" fill="#000000" fill-rule="nonzero" font-family="Helvetica" font-size="2.82222222" font-weight="normal">
            <text>
                <tspan x="0" y="3">UU</tspan>
            </text>
        </g>
        <g id="UU" transform="translate(58.461881, 20.229928)" fill="#000000" fill-rule="nonzero" font-family="Helvetica" font-size="2.82222222" font-weight="normal">
            <text>
                <tspan x="0" y="3">UU</tspan>
            </text>
        </g>
        <g id="UU" transform="translate(58.461881, 24.229928)" fill="#000000" fill-rule="nonzero" font-family="Helvetica" font-size="2.82222222" font-weight="normal">
            <text>
                <tspan x="0" y="3">UU</tspan>
            </text>
        </g>
        <g id="UU" transform="translate(58.461881, 28.229928)" fill="#000000" fill-rule="nonzero" font-family="Helvetica" font-size="2.82222222" font-weight="normal">
            <text>
                <tspan x="0" y="3">UU</tspan>
            </text>
        </g>
        <g id="3any,-3unique" transform="translate(4.237744, 46.229928)" fill="#000000" fill-rule="nonzero" font-family="Helvetica" font-size="2.82222222" font-weight="normal">
            <text>
                <tspan x="4.4408921e-16" y="3">3any, 3unique</tspan>
            </text>
        </g>
        <g id="UU" transform="translate(58.461881, 46.229928)" fill="#000000" fill-rule="nonzero" font-family="Helvetica" font-size="2.82222222" font-weight="normal">
            <text>
                <tspan x="0" y="3">UU</tspan>
            </text>
        </g>
        <g id="WW" transform="translate(57.836252, 36.229928)" fill="#000000" fill-rule="nonzero" font-family="Helvetica" font-size="2.82222222" font-weight="normal">
            <text>
                <tspan x="0" y="3">WW</tspan>
            </text>
        </g>
        <g id="!" transform="translate(32.107948, 36.229928)" fill="#000000" fill-rule="nonzero" font-family="Helvetica" font-size="2.82222222" font-weight="normal">
            <text>
                <tspan x="0" y="3">!</tspan>
            </text>
        </g>
        <g id="!" transform="translate(48.107948, 36.229928)" fill="#000000" fill-rule="nonzero" font-family="Helvetica" font-size="2.82222222" font-weight="normal">
            <text>
                <tspan x="0" y="3">!</tspan>
            </text>
        </g>
        <g id="{" transform="translate(20.650651, 16.155461)" fill="#000000" fill-rule="nonzero" font-family="Helvetica-Light, Helvetica" font-size="15" font-weight="300">
            <text>
                <tspan x="0" y="15">{</tspan>
            </text>
        </g>
    </g>
</svg>